<svg width="1530" height="64" viewBox="0 0 1530 64" fill="none" xmlns="http://www.w3.org/2000/svg">
<rect width="1530" height="64" fill="#0071BB" style="fill:#0071BB;fill:color(display-p3 0.0000 0.4431 0.7333);fill-opacity:1;"/>
<rect x="129" y="9.5" width="109" height="44" rx="4" fill="#F4F4F4" style="fill:#F4F4F4;fill:color(display-p3 0.9569 0.9569 0.9569);fill-opacity:1;"/>
<path d="M164.011 37.5V25.8636H166.472V35.4716H171.46V37.5H164.011ZM176.827 37.6705C175.945 37.6705 175.181 37.483 174.537 37.108C173.897 36.7292 173.403 36.2027 173.054 35.5284C172.706 34.8504 172.532 34.0644 172.532 33.1705C172.532 32.2689 172.706 31.4811 173.054 30.8068C173.403 30.1288 173.897 29.6023 174.537 29.2273C175.181 28.8485 175.945 28.6591 176.827 28.6591C177.71 28.6591 178.471 28.8485 179.111 29.2273C179.755 29.6023 180.251 30.1288 180.6 30.8068C180.948 31.4811 181.123 32.2689 181.123 33.1705C181.123 34.0644 180.948 34.8504 180.6 35.5284C180.251 36.2027 179.755 36.7292 179.111 37.108C178.471 37.483 177.71 37.6705 176.827 37.6705ZM176.839 35.7955C177.24 35.7955 177.575 35.6818 177.844 35.4545C178.113 35.2235 178.316 34.9091 178.452 34.5114C178.592 34.1136 178.662 33.661 178.662 33.1534C178.662 32.6458 178.592 32.1932 178.452 31.7955C178.316 31.3977 178.113 31.0833 177.844 30.8523C177.575 30.6212 177.24 30.5057 176.839 30.5057C176.433 30.5057 176.092 30.6212 175.816 30.8523C175.543 31.0833 175.337 31.3977 175.197 31.7955C175.06 32.1932 174.992 32.6458 174.992 33.1534C174.992 33.661 175.06 34.1136 175.197 34.5114C175.337 34.9091 175.543 35.2235 175.816 35.4545C176.092 35.6818 176.433 35.7955 176.839 35.7955ZM186.468 40.9545C185.684 40.9545 185.012 40.8466 184.451 40.6307C183.894 40.4186 183.451 40.1288 183.122 39.7614C182.792 39.3939 182.578 38.9811 182.48 38.5227L184.718 38.2216C184.787 38.3958 184.894 38.5587 185.042 38.7102C185.19 38.8617 185.385 38.983 185.627 39.0739C185.874 39.1686 186.173 39.2159 186.525 39.2159C187.052 39.2159 187.485 39.0871 187.826 38.8295C188.171 38.5758 188.343 38.1496 188.343 37.5511V35.9545H188.241C188.135 36.197 187.976 36.4261 187.764 36.642C187.552 36.858 187.279 37.0341 186.946 37.1705C186.612 37.3068 186.215 37.375 185.752 37.375C185.097 37.375 184.501 37.2235 183.963 36.9205C183.429 36.6136 183.002 36.1458 182.684 35.517C182.37 34.8845 182.213 34.0852 182.213 33.1193C182.213 32.1307 182.374 31.3049 182.696 30.642C183.018 29.9792 183.446 29.483 183.98 29.1534C184.518 28.8239 185.107 28.6591 185.747 28.6591C186.235 28.6591 186.644 28.7424 186.974 28.9091C187.304 29.072 187.569 29.2765 187.769 29.5227C187.974 29.7652 188.131 30.0038 188.241 30.2386H188.332V28.7727H190.735V37.5852C190.735 38.3277 190.554 38.9489 190.19 39.4489C189.826 39.9489 189.323 40.3239 188.679 40.5739C188.038 40.8277 187.302 40.9545 186.468 40.9545ZM186.519 35.5568C186.91 35.5568 187.239 35.4602 187.508 35.267C187.781 35.0701 187.989 34.7898 188.133 34.4261C188.281 34.0587 188.355 33.6193 188.355 33.108C188.355 32.5966 188.283 32.1534 188.139 31.7784C187.995 31.3996 187.787 31.1061 187.514 30.8977C187.241 30.6894 186.91 30.5852 186.519 30.5852C186.122 30.5852 185.787 30.6932 185.514 30.9091C185.241 31.1212 185.035 31.4167 184.894 31.7955C184.754 32.1742 184.684 32.6117 184.684 33.108C184.684 33.6117 184.754 34.0473 184.894 34.4148C185.038 34.7784 185.245 35.0606 185.514 35.2614C185.787 35.4583 186.122 35.5568 186.519 35.5568ZM196.445 37.6705C195.562 37.6705 194.799 37.483 194.155 37.108C193.515 36.7292 193.02 36.2027 192.672 35.5284C192.324 34.8504 192.149 34.0644 192.149 33.1705C192.149 32.2689 192.324 31.4811 192.672 30.8068C193.02 30.1288 193.515 29.6023 194.155 29.2273C194.799 28.8485 195.562 28.6591 196.445 28.6591C197.327 28.6591 198.089 28.8485 198.729 29.2273C199.373 29.6023 199.869 30.1288 200.217 30.8068C200.566 31.4811 200.74 32.2689 200.74 33.1705C200.74 34.0644 200.566 34.8504 200.217 35.5284C199.869 36.2027 199.373 36.7292 198.729 37.108C198.089 37.483 197.327 37.6705 196.445 37.6705ZM196.456 35.7955C196.858 35.7955 197.193 35.6818 197.462 35.4545C197.731 35.2235 197.933 34.9091 198.07 34.5114C198.21 34.1136 198.28 33.661 198.28 33.1534C198.28 32.6458 198.21 32.1932 198.07 31.7955C197.933 31.3977 197.731 31.0833 197.462 30.8523C197.193 30.6212 196.858 30.5057 196.456 30.5057C196.051 30.5057 195.71 30.6212 195.433 30.8523C195.161 31.0833 194.954 31.3977 194.814 31.7955C194.678 32.1932 194.609 32.6458 194.609 33.1534C194.609 33.661 194.678 34.1136 194.814 34.5114C194.954 34.9091 195.161 35.2235 195.433 35.4545C195.71 35.6818 196.051 35.7955 196.456 35.7955Z" fill="#2C2C2C" style="fill:#2C2C2C;fill:color(display-p3 0.1716 0.1716 0.1716);fill-opacity:1;"/>
<path d="M265.333 24.8334C264.803 24.8334 264.294 25.0441 263.919 25.4192C263.544 25.7942 263.333 26.3029 263.333 26.8334V28.8334C263.333 29.2016 263.631 29.5 264 29.5C264.368 29.5 264.666 29.2016 264.666 28.8334V26.8334C264.666 26.6566 264.737 26.487 264.862 26.362C264.987 26.2369 265.156 26.1667 265.333 26.1667H267.333C267.701 26.1667 268 25.8682 268 25.5C268 25.1319 267.701 24.8334 267.333 24.8334H265.333Z" fill="#F4F4F4" style="fill:#F4F4F4;fill:color(display-p3 0.9569 0.9569 0.9569);fill-opacity:1;"/>
<path d="M272.666 24.8334C272.298 24.8334 272 25.1319 272 25.5C272 25.8682 272.298 26.1667 272.666 26.1667H274.666C274.843 26.1667 275.013 26.2369 275.138 26.362C275.263 26.487 275.333 26.6566 275.333 26.8334V28.8334C275.333 29.2016 275.631 29.5 276 29.5C276.368 29.5 276.666 29.2016 276.666 28.8334V26.8334C276.666 26.3029 276.456 25.7942 276.081 25.4192C275.705 25.0441 275.197 24.8334 274.666 24.8334H272.666Z" fill="#F4F4F4" style="fill:#F4F4F4;fill:color(display-p3 0.9569 0.9569 0.9569);fill-opacity:1;"/>
<path d="M264.666 34.1667C264.666 33.7985 264.368 33.5 264 33.5C263.631 33.5 263.333 33.7985 263.333 34.1667V36.1667C263.333 36.6971 263.544 37.2058 263.919 37.5809C264.294 37.956 264.803 38.1667 265.333 38.1667H267.333C267.701 38.1667 268 37.8682 268 37.5C268 37.1319 267.701 36.8334 267.333 36.8334H265.333C265.156 36.8334 264.987 36.7631 264.862 36.6381C264.737 36.5131 264.666 36.3435 264.666 36.1667V34.1667Z" fill="#F4F4F4" style="fill:#F4F4F4;fill:color(display-p3 0.9569 0.9569 0.9569);fill-opacity:1;"/>
<path d="M276.666 34.1667C276.666 33.7985 276.368 33.5 276 33.5C275.631 33.5 275.333 33.7985 275.333 34.1667V36.1667C275.333 36.3435 275.263 36.5131 275.138 36.6381C275.013 36.7631 274.843 36.8334 274.666 36.8334H272.666C272.298 36.8334 272 37.1319 272 37.5C272 37.8682 272.298 38.1667 272.666 38.1667H274.666C275.197 38.1667 275.705 37.956 276.081 37.5809C276.456 37.2058 276.666 36.6971 276.666 36.1667V34.1667Z" fill="#F4F4F4" style="fill:#F4F4F4;fill:color(display-p3 0.9569 0.9569 0.9569);fill-opacity:1;"/>
<path d="M290.2 29.36C290.685 29.36 291.11 29.4347 291.474 29.584C291.847 29.7333 292.169 29.948 292.44 30.228C292.711 30.508 292.93 30.8393 293.098 31.222L292.034 31.726C291.885 31.278 291.656 30.9373 291.348 30.704C291.049 30.4613 290.657 30.34 290.172 30.34C289.705 30.34 289.304 30.4473 288.968 30.662C288.632 30.8673 288.375 31.1707 288.198 31.572C288.021 31.964 287.932 32.44 287.932 33C287.932 33.5507 288.021 34.0267 288.198 34.428C288.375 34.8293 288.632 35.1373 288.968 35.352C289.304 35.5573 289.705 35.66 290.172 35.66C290.536 35.66 290.849 35.604 291.11 35.492C291.381 35.38 291.6 35.2167 291.768 35.002C291.945 34.7873 292.067 34.526 292.132 34.218L293.168 34.582C293.009 35.0113 292.79 35.38 292.51 35.688C292.239 35.996 291.908 36.234 291.516 36.402C291.133 36.5607 290.695 36.64 290.2 36.64C289.547 36.64 288.963 36.4953 288.45 36.206C287.937 35.9167 287.535 35.5013 287.246 34.96C286.957 34.4093 286.812 33.756 286.812 33C286.812 32.244 286.957 31.5953 287.246 31.054C287.535 30.5033 287.937 30.0833 288.45 29.794C288.963 29.5047 289.547 29.36 290.2 29.36ZM298.034 29.36C298.697 29.36 299.28 29.5047 299.784 29.794C300.297 30.0833 300.699 30.5033 300.988 31.054C301.277 31.5953 301.422 32.244 301.422 33C301.422 33.756 301.277 34.4093 300.988 34.96C300.699 35.5013 300.297 35.9167 299.784 36.206C299.28 36.4953 298.697 36.64 298.034 36.64C297.381 36.64 296.797 36.4953 296.284 36.206C295.771 35.9167 295.369 35.5013 295.08 34.96C294.791 34.4093 294.646 33.756 294.646 33C294.646 32.244 294.791 31.5953 295.08 31.054C295.369 30.5033 295.771 30.0833 296.284 29.794C296.797 29.5047 297.381 29.36 298.034 29.36ZM298.034 30.326C297.558 30.326 297.152 30.4333 296.816 30.648C296.48 30.8627 296.219 31.1707 296.032 31.572C295.855 31.964 295.766 32.44 295.766 33C295.766 33.5507 295.855 34.0267 296.032 34.428C296.219 34.8293 296.48 35.1373 296.816 35.352C297.152 35.5667 297.558 35.674 298.034 35.674C298.51 35.674 298.916 35.5667 299.252 35.352C299.588 35.1373 299.845 34.8293 300.022 34.428C300.209 34.0267 300.302 33.5507 300.302 33C300.302 32.44 300.209 31.964 300.022 31.572C299.845 31.1707 299.588 30.8627 299.252 30.648C298.916 30.4333 298.51 30.326 298.034 30.326ZM303.531 36.5V29.5H304.511L304.609 31.068L304.427 30.914C304.576 30.5407 304.777 30.242 305.029 30.018C305.281 29.7847 305.57 29.6167 305.897 29.514C306.233 29.4113 306.578 29.36 306.933 29.36C307.437 29.36 307.894 29.458 308.305 29.654C308.715 29.8407 309.042 30.13 309.285 30.522C309.537 30.914 309.663 31.4133 309.663 32.02V36.5H308.543V32.412C308.543 31.6373 308.375 31.1007 308.039 30.802C307.712 30.494 307.306 30.34 306.821 30.34C306.485 30.34 306.149 30.4193 305.813 30.578C305.477 30.7367 305.197 30.9933 304.973 31.348C304.758 31.7027 304.651 32.1787 304.651 32.776V36.5H303.531ZM314.718 36.64C314.037 36.64 313.407 36.4953 312.828 36.206C312.259 35.9167 311.82 35.506 311.512 34.974L312.464 34.288C312.67 34.7173 312.968 35.0533 313.36 35.296C313.762 35.5387 314.242 35.66 314.802 35.66C315.297 35.66 315.684 35.5667 315.964 35.38C316.244 35.184 316.384 34.932 316.384 34.624C316.384 34.428 316.319 34.2507 316.188 34.092C316.067 33.924 315.829 33.8027 315.474 33.728L313.794 33.378C313.113 33.238 312.623 33.0047 312.324 32.678C312.035 32.3513 311.89 31.9453 311.89 31.46C311.89 31.0773 311.998 30.7273 312.212 30.41C312.436 30.0927 312.749 29.8407 313.15 29.654C313.561 29.458 314.042 29.36 314.592 29.36C315.283 29.36 315.866 29.4953 316.342 29.766C316.818 30.0367 317.173 30.4193 317.406 30.914L316.468 31.53C316.31 31.1193 316.053 30.8207 315.698 30.634C315.344 30.438 314.975 30.34 314.592 30.34C314.256 30.34 313.967 30.3867 313.724 30.48C313.491 30.5733 313.309 30.704 313.178 30.872C313.057 31.0307 312.996 31.2127 312.996 31.418C312.996 31.6233 313.066 31.8147 313.206 31.992C313.346 32.16 313.608 32.2813 313.99 32.356L315.74 32.72C316.394 32.8507 316.851 33.0653 317.112 33.364C317.374 33.6627 317.504 34.0267 317.504 34.456C317.504 34.8947 317.388 35.282 317.154 35.618C316.921 35.9447 316.594 36.1967 316.174 36.374C315.754 36.5513 315.269 36.64 314.718 36.64ZM322.115 36.64C321.667 36.64 321.243 36.556 320.841 36.388C320.449 36.22 320.127 35.9493 319.875 35.576C319.633 35.1933 319.511 34.6987 319.511 34.092V29.5H320.631V33.798C320.631 34.5073 320.785 34.9973 321.093 35.268C321.401 35.5293 321.835 35.66 322.395 35.66C322.657 35.66 322.913 35.618 323.165 35.534C323.417 35.4407 323.641 35.3007 323.837 35.114C324.043 34.918 324.201 34.6707 324.313 34.372C324.435 34.0733 324.495 33.7187 324.495 33.308V29.5H325.615V36.5H324.635L324.565 35.436C324.323 35.856 323.991 36.164 323.571 36.36C323.161 36.5467 322.675 36.64 322.115 36.64ZM329.286 26.28V34.722C329.286 35.0767 329.351 35.324 329.482 35.464C329.613 35.5947 329.823 35.66 330.112 35.66C330.299 35.66 330.453 35.646 330.574 35.618C330.695 35.59 330.859 35.5387 331.064 35.464L330.882 36.444C330.733 36.5093 330.569 36.556 330.392 36.584C330.215 36.6213 330.033 36.64 329.846 36.64C329.277 36.64 328.852 36.486 328.572 36.178C328.301 35.87 328.166 35.3987 328.166 34.764V26.28H329.286ZM333.88 27.512V34.568C333.88 34.9133 333.978 35.17 334.174 35.338C334.37 35.506 334.622 35.59 334.93 35.59C335.2 35.59 335.434 35.5433 335.63 35.45C335.826 35.3567 336.003 35.2307 336.162 35.072L336.554 36.01C336.339 36.206 336.082 36.36 335.784 36.472C335.494 36.584 335.158 36.64 334.776 36.64C334.421 36.64 334.09 36.5793 333.782 36.458C333.474 36.3273 333.226 36.1267 333.04 35.856C332.862 35.576 332.769 35.212 332.76 34.764V27.82L333.88 27.512ZM336.428 29.5V30.466H331.36V29.5H336.428ZM342.181 31.978C342.181 31.4553 342.041 31.054 341.761 30.774C341.481 30.4847 341.084 30.34 340.571 30.34C340.086 30.34 339.675 30.4473 339.339 30.662C339.003 30.8673 338.756 31.2033 338.597 31.67L337.687 31.11C337.874 30.5873 338.219 30.1673 338.723 29.85C339.227 29.5233 339.852 29.36 340.599 29.36C341.103 29.36 341.56 29.4487 341.971 29.626C342.382 29.794 342.704 30.0553 342.937 30.41C343.18 30.7553 343.301 31.2033 343.301 31.754V35.142C343.301 35.478 343.478 35.646 343.833 35.646C344.01 35.646 344.183 35.6227 344.351 35.576L344.295 36.458C344.108 36.5513 343.866 36.598 343.567 36.598C343.296 36.598 343.054 36.5467 342.839 36.444C342.624 36.3413 342.456 36.1873 342.335 35.982C342.214 35.7673 342.153 35.5013 342.153 35.184V35.044L342.433 35.086C342.321 35.45 342.13 35.7487 341.859 35.982C341.588 36.206 341.285 36.374 340.949 36.486C340.613 36.5887 340.282 36.64 339.955 36.64C339.544 36.64 339.162 36.57 338.807 36.43C338.452 36.29 338.168 36.08 337.953 35.8C337.748 35.5107 337.645 35.156 337.645 34.736C337.645 34.2133 337.818 33.784 338.163 33.448C338.518 33.1027 339.008 32.8693 339.633 32.748L342.405 32.202V33.126L340.151 33.588C339.694 33.6813 339.353 33.812 339.129 33.98C338.905 34.148 338.793 34.3813 338.793 34.68C338.793 34.9693 338.905 35.2073 339.129 35.394C339.362 35.5713 339.689 35.66 340.109 35.66C340.38 35.66 340.636 35.6273 340.879 35.562C341.131 35.4873 341.355 35.38 341.551 35.24C341.747 35.0907 341.901 34.9087 342.013 34.694C342.125 34.47 342.181 34.2087 342.181 33.91V31.978ZM348.543 36.64C347.861 36.64 347.231 36.4953 346.653 36.206C346.083 35.9167 345.645 35.506 345.337 34.974L346.289 34.288C346.494 34.7173 346.793 35.0533 347.185 35.296C347.586 35.5387 348.067 35.66 348.627 35.66C349.121 35.66 349.509 35.5667 349.789 35.38C350.069 35.184 350.209 34.932 350.209 34.624C350.209 34.428 350.143 34.2507 350.013 34.092C349.891 33.924 349.653 33.8027 349.299 33.728L347.619 33.378C346.937 33.238 346.447 33.0047 346.149 32.678C345.859 32.3513 345.715 31.9453 345.715 31.46C345.715 31.0773 345.822 30.7273 346.037 30.41C346.261 30.0927 346.573 29.8407 346.975 29.654C347.385 29.458 347.866 29.36 348.417 29.36C349.107 29.36 349.691 29.4953 350.167 29.766C350.643 30.0367 350.997 30.4193 351.231 30.914L350.293 31.53C350.134 31.1193 349.877 30.8207 349.523 30.634C349.168 30.438 348.799 30.34 348.417 30.34C348.081 30.34 347.791 30.3867 347.549 30.48C347.315 30.5733 347.133 30.704 347.003 30.872C346.881 31.0307 346.821 31.2127 346.821 31.418C346.821 31.6233 346.891 31.8147 347.031 31.992C347.171 32.16 347.432 32.2813 347.815 32.356L349.565 32.72C350.218 32.8507 350.675 33.0653 350.937 33.364C351.198 33.6627 351.329 34.0267 351.329 34.456C351.329 34.8947 351.212 35.282 350.979 35.618C350.745 35.9447 350.419 36.1967 349.999 36.374C349.579 36.5513 349.093 36.64 348.543 36.64Z" fill="#F4F4F4" style="fill:#F4F4F4;fill:color(display-p3 0.9569 0.9569 0.9569);fill-opacity:1;"/>
<path d="M365 29L371.551 34L378 29" stroke="#F4F4F4" style="stroke:#F4F4F4;stroke:color(display-p3 0.9569 0.9569 0.9569);stroke-opacity:1;" stroke-linecap="round"/>
<path d="M401.333 24.8334C400.803 24.8334 400.294 25.0441 399.919 25.4192C399.544 25.7942 399.333 26.3029 399.333 26.8334V28.8334C399.333 29.2016 399.631 29.5 400 29.5C400.368 29.5 400.666 29.2016 400.666 28.8334V26.8334C400.666 26.6566 400.737 26.487 400.862 26.362C400.987 26.2369 401.156 26.1667 401.333 26.1667H403.333C403.701 26.1667 404 25.8682 404 25.5C404 25.1319 403.701 24.8334 403.333 24.8334H401.333Z" fill="#F4F4F4" style="fill:#F4F4F4;fill:color(display-p3 0.9569 0.9569 0.9569);fill-opacity:1;"/>
<path d="M408.666 24.8334C408.298 24.8334 408 25.1319 408 25.5C408 25.8682 408.298 26.1667 408.666 26.1667H410.666C410.843 26.1667 411.013 26.2369 411.138 26.362C411.263 26.487 411.333 26.6566 411.333 26.8334V28.8334C411.333 29.2016 411.631 29.5 412 29.5C412.368 29.5 412.666 29.2016 412.666 28.8334V26.8334C412.666 26.3029 412.456 25.7942 412.081 25.4192C411.705 25.0441 411.197 24.8334 410.666 24.8334H408.666Z" fill="#F4F4F4" style="fill:#F4F4F4;fill:color(display-p3 0.9569 0.9569 0.9569);fill-opacity:1;"/>
<path d="M400.666 34.1667C400.666 33.7985 400.368 33.5 400 33.5C399.631 33.5 399.333 33.7985 399.333 34.1667V36.1667C399.333 36.6971 399.544 37.2058 399.919 37.5809C400.294 37.956 400.803 38.1667 401.333 38.1667H403.333C403.701 38.1667 404 37.8682 404 37.5C404 37.1319 403.701 36.8334 403.333 36.8334H401.333C401.156 36.8334 400.987 36.7631 400.862 36.6381C400.737 36.5131 400.666 36.3435 400.666 36.1667V34.1667Z" fill="#F4F4F4" style="fill:#F4F4F4;fill:color(display-p3 0.9569 0.9569 0.9569);fill-opacity:1;"/>
<path d="M412.666 34.1667C412.666 33.7985 412.368 33.5 412 33.5C411.631 33.5 411.333 33.7985 411.333 34.1667V36.1667C411.333 36.3435 411.263 36.5131 411.138 36.6381C411.013 36.7631 410.843 36.8334 410.666 36.8334H408.666C408.298 36.8334 408 37.1319 408 37.5C408 37.8682 408.298 38.1667 408.666 38.1667H410.666C411.197 38.1667 411.705 37.956 412.081 37.5809C412.456 37.2058 412.666 36.6971 412.666 36.1667V34.1667Z" fill="#F4F4F4" style="fill:#F4F4F4;fill:color(display-p3 0.9569 0.9569 0.9569);fill-opacity:1;"/>
<path d="M423.302 36V29H424.212L424.366 30.148C424.562 29.7187 424.847 29.3967 425.22 29.182C425.603 28.9673 426.065 28.86 426.606 28.86C426.727 28.86 426.858 28.8693 426.998 28.888C427.147 28.9067 427.273 28.944 427.376 29L427.18 30.022C427.077 29.9847 426.965 29.9567 426.844 29.938C426.723 29.9193 426.55 29.91 426.326 29.91C426.037 29.91 425.743 29.994 425.444 30.162C425.155 30.33 424.912 30.5867 424.716 30.932C424.52 31.268 424.422 31.6973 424.422 32.22V36H423.302ZM431.724 36.14C431.061 36.14 430.469 35.9953 429.946 35.706C429.433 35.4167 429.031 35.0013 428.742 34.46C428.453 33.9093 428.308 33.256 428.308 32.5C428.308 31.744 428.453 31.0953 428.742 30.554C429.031 30.0033 429.428 29.5833 429.932 29.294C430.436 29.0047 431.01 28.86 431.654 28.86C432.307 28.86 432.863 29 433.32 29.28C433.787 29.56 434.141 29.9427 434.384 30.428C434.627 30.904 434.748 31.4407 434.748 32.038C434.748 32.1967 434.743 32.3413 434.734 32.472C434.725 32.6027 434.711 32.7193 434.692 32.822H429.036V31.828H434.202L433.628 31.94C433.628 31.268 433.441 30.75 433.068 30.386C432.704 30.022 432.223 29.84 431.626 29.84C431.169 29.84 430.772 29.9473 430.436 30.162C430.109 30.3673 429.853 30.6707 429.666 31.072C429.489 31.464 429.4 31.94 429.4 32.5C429.4 33.0507 429.493 33.5267 429.68 33.928C429.867 34.3293 430.128 34.6373 430.464 34.852C430.809 35.0573 431.22 35.16 431.696 35.16C432.209 35.16 432.625 35.062 432.942 34.866C433.269 34.67 433.53 34.404 433.726 34.068L434.608 34.586C434.431 34.9033 434.202 35.1787 433.922 35.412C433.651 35.6453 433.329 35.8273 432.956 35.958C432.592 36.0793 432.181 36.14 431.724 36.14ZM437.942 25.78V34.222C437.942 34.5767 438.008 34.824 438.138 34.964C438.269 35.0947 438.479 35.16 438.768 35.16C438.955 35.16 439.109 35.146 439.23 35.118C439.352 35.09 439.515 35.0387 439.72 34.964L439.538 35.944C439.389 36.0093 439.226 36.056 439.048 36.084C438.871 36.1213 438.689 36.14 438.502 36.14C437.933 36.14 437.508 35.986 437.228 35.678C436.958 35.37 436.822 34.8987 436.822 34.264V25.78H437.942ZM445.245 31.478C445.245 30.9553 445.105 30.554 444.825 30.274C444.545 29.9847 444.149 29.84 443.635 29.84C443.15 29.84 442.739 29.9473 442.403 30.162C442.067 30.3673 441.82 30.7033 441.661 31.17L440.751 30.61C440.938 30.0873 441.283 29.6673 441.787 29.35C442.291 29.0233 442.917 28.86 443.663 28.86C444.167 28.86 444.625 28.9487 445.035 29.126C445.446 29.294 445.768 29.5553 446.001 29.91C446.244 30.2553 446.365 30.7033 446.365 31.254V34.642C446.365 34.978 446.543 35.146 446.897 35.146C447.075 35.146 447.247 35.1227 447.415 35.076L447.359 35.958C447.173 36.0513 446.93 36.098 446.631 36.098C446.361 36.098 446.118 36.0467 445.903 35.944C445.689 35.8413 445.521 35.6873 445.399 35.482C445.278 35.2673 445.217 35.0013 445.217 34.684V34.544L445.497 34.586C445.385 34.95 445.194 35.2487 444.923 35.482C444.653 35.706 444.349 35.874 444.013 35.986C443.677 36.0887 443.346 36.14 443.019 36.14C442.609 36.14 442.226 36.07 441.871 35.93C441.517 35.79 441.232 35.58 441.017 35.3C440.812 35.0107 440.709 34.656 440.709 34.236C440.709 33.7133 440.882 33.284 441.227 32.948C441.582 32.6027 442.072 32.3693 442.697 32.248L445.469 31.702V32.626L443.215 33.088C442.758 33.1813 442.417 33.312 442.193 33.48C441.969 33.648 441.857 33.8813 441.857 34.18C441.857 34.4693 441.969 34.7073 442.193 34.894C442.427 35.0713 442.753 35.16 443.173 35.16C443.444 35.16 443.701 35.1273 443.943 35.062C444.195 34.9873 444.419 34.88 444.615 34.74C444.811 34.5907 444.965 34.4087 445.077 34.194C445.189 33.97 445.245 33.7087 445.245 33.41V31.478ZM450.466 27.012V34.068C450.466 34.4133 450.564 34.67 450.76 34.838C450.956 35.006 451.208 35.09 451.516 35.09C451.786 35.09 452.02 35.0433 452.216 34.95C452.412 34.8567 452.589 34.7307 452.748 34.572L453.14 35.51C452.925 35.706 452.668 35.86 452.37 35.972C452.08 36.084 451.744 36.14 451.362 36.14C451.007 36.14 450.676 36.0793 450.368 35.958C450.06 35.8273 449.812 35.6267 449.626 35.356C449.448 35.076 449.355 34.712 449.346 34.264V27.32L450.466 27.012ZM453.014 29V29.966H447.946V29H453.014ZM457.577 28.86C458.24 28.86 458.823 29.0047 459.327 29.294C459.84 29.5833 460.242 30.0033 460.531 30.554C460.82 31.0953 460.965 31.744 460.965 32.5C460.965 33.256 460.82 33.9093 460.531 34.46C460.242 35.0013 459.84 35.4167 459.327 35.706C458.823 35.9953 458.24 36.14 457.577 36.14C456.924 36.14 456.34 35.9953 455.827 35.706C455.314 35.4167 454.912 35.0013 454.623 34.46C454.334 33.9093 454.189 33.256 454.189 32.5C454.189 31.744 454.334 31.0953 454.623 30.554C454.912 30.0033 455.314 29.5833 455.827 29.294C456.34 29.0047 456.924 28.86 457.577 28.86ZM457.577 29.826C457.101 29.826 456.695 29.9333 456.359 30.148C456.023 30.3627 455.762 30.6707 455.575 31.072C455.398 31.464 455.309 31.94 455.309 32.5C455.309 33.0507 455.398 33.5267 455.575 33.928C455.762 34.3293 456.023 34.6373 456.359 34.852C456.695 35.0667 457.101 35.174 457.577 35.174C458.053 35.174 458.459 35.0667 458.795 34.852C459.131 34.6373 459.388 34.3293 459.565 33.928C459.752 33.5267 459.845 33.0507 459.845 32.5C459.845 31.94 459.752 31.464 459.565 31.072C459.388 30.6707 459.131 30.3627 458.795 30.148C458.459 29.9333 458.053 29.826 457.577 29.826ZM457.955 25.5H459.173L457.801 27.838H456.891L457.955 25.5ZM463.073 36V29H463.983L464.137 30.148C464.333 29.7187 464.618 29.3967 464.991 29.182C465.374 28.9673 465.836 28.86 466.377 28.86C466.499 28.86 466.629 28.8693 466.769 28.888C466.919 28.9067 467.045 28.944 467.147 29L466.951 30.022C466.849 29.9847 466.737 29.9567 466.615 29.938C466.494 29.9193 466.321 29.91 466.097 29.91C465.808 29.91 465.514 29.994 465.215 30.162C464.926 30.33 464.683 30.5867 464.487 30.932C464.291 31.268 464.193 31.6973 464.193 32.22V36H463.073ZM469.348 27.656C469.096 27.656 468.891 27.5813 468.732 27.432C468.583 27.2733 468.508 27.068 468.508 26.816C468.508 26.564 468.583 26.3633 468.732 26.214C468.891 26.0553 469.096 25.976 469.348 25.976C469.6 25.976 469.801 26.0553 469.95 26.214C470.109 26.3633 470.188 26.564 470.188 26.816C470.188 27.068 470.109 27.2733 469.95 27.432C469.801 27.5813 469.6 27.656 469.348 27.656ZM469.908 29V36H468.788V29H469.908ZM475.405 28.86C476.068 28.86 476.651 29.0047 477.155 29.294C477.668 29.5833 478.07 30.0033 478.359 30.554C478.648 31.0953 478.793 31.744 478.793 32.5C478.793 33.256 478.648 33.9093 478.359 34.46C478.07 35.0013 477.668 35.4167 477.155 35.706C476.651 35.9953 476.068 36.14 475.405 36.14C474.752 36.14 474.168 35.9953 473.655 35.706C473.142 35.4167 472.74 35.0013 472.451 34.46C472.162 33.9093 472.017 33.256 472.017 32.5C472.017 31.744 472.162 31.0953 472.451 30.554C472.74 30.0033 473.142 29.5833 473.655 29.294C474.168 29.0047 474.752 28.86 475.405 28.86ZM475.405 29.826C474.929 29.826 474.523 29.9333 474.187 30.148C473.851 30.3627 473.59 30.6707 473.403 31.072C473.226 31.464 473.137 31.94 473.137 32.5C473.137 33.0507 473.226 33.5267 473.403 33.928C473.59 34.3293 473.851 34.6373 474.187 34.852C474.523 35.0667 474.929 35.174 475.405 35.174C475.881 35.174 476.287 35.0667 476.623 34.852C476.959 34.6373 477.216 34.3293 477.393 33.928C477.58 33.5267 477.673 33.0507 477.673 32.5C477.673 31.94 477.58 31.464 477.393 31.072C477.216 30.6707 476.959 30.3627 476.623 30.148C476.287 29.9333 475.881 29.826 475.405 29.826ZM483.422 36.14C482.74 36.14 482.11 35.9953 481.532 35.706C480.962 35.4167 480.524 35.006 480.216 34.474L481.168 33.788C481.373 34.2173 481.672 34.5533 482.064 34.796C482.465 35.0387 482.946 35.16 483.506 35.16C484 35.16 484.388 35.0667 484.668 34.88C484.948 34.684 485.088 34.432 485.088 34.124C485.088 33.928 485.022 33.7507 484.892 33.592C484.77 33.424 484.532 33.3027 484.178 33.228L482.498 32.878C481.816 32.738 481.326 32.5047 481.028 32.178C480.738 31.8513 480.594 31.4453 480.594 30.96C480.594 30.5773 480.701 30.2273 480.916 29.91C481.14 29.5927 481.452 29.3407 481.854 29.154C482.264 28.958 482.745 28.86 483.296 28.86C483.986 28.86 484.57 28.9953 485.046 29.266C485.522 29.5367 485.876 29.9193 486.11 30.414L485.172 31.03C485.013 30.6193 484.756 30.3207 484.402 30.134C484.047 29.938 483.678 29.84 483.296 29.84C482.96 29.84 482.67 29.8867 482.428 29.98C482.194 30.0733 482.012 30.204 481.882 30.372C481.76 30.5307 481.7 30.7127 481.7 30.918C481.7 31.1233 481.77 31.3147 481.91 31.492C482.05 31.66 482.311 31.7813 482.694 31.856L484.444 32.22C485.097 32.3507 485.554 32.5653 485.816 32.864C486.077 33.1627 486.208 33.5267 486.208 33.956C486.208 34.3947 486.091 34.782 485.858 35.118C485.624 35.4447 485.298 35.6967 484.878 35.874C484.458 36.0513 483.972 36.14 483.422 36.14ZM495.982 36.14C495.319 36.14 494.727 35.9953 494.204 35.706C493.691 35.4167 493.289 35.0013 493 34.46C492.711 33.9093 492.566 33.256 492.566 32.5C492.566 31.744 492.711 31.0953 493 30.554C493.289 30.0033 493.686 29.5833 494.19 29.294C494.694 29.0047 495.268 28.86 495.912 28.86C496.565 28.86 497.121 29 497.578 29.28C498.045 29.56 498.399 29.9427 498.642 30.428C498.885 30.904 499.006 31.4407 499.006 32.038C499.006 32.1967 499.001 32.3413 498.992 32.472C498.983 32.6027 498.969 32.7193 498.95 32.822H493.294V31.828H498.46L497.886 31.94C497.886 31.268 497.699 30.75 497.326 30.386C496.962 30.022 496.481 29.84 495.884 29.84C495.427 29.84 495.03 29.9473 494.694 30.162C494.367 30.3673 494.111 30.6707 493.924 31.072C493.747 31.464 493.658 31.94 493.658 32.5C493.658 33.0507 493.751 33.5267 493.938 33.928C494.125 34.3293 494.386 34.6373 494.722 34.852C495.067 35.0573 495.478 35.16 495.954 35.16C496.467 35.16 496.883 35.062 497.2 34.866C497.527 34.67 497.788 34.404 497.984 34.068L498.866 34.586C498.689 34.9033 498.46 35.1787 498.18 35.412C497.909 35.6453 497.587 35.8273 497.214 35.958C496.85 36.0793 496.439 36.14 495.982 36.14ZM508.833 36.14C508.171 36.14 507.578 35.9953 507.055 35.706C506.542 35.4167 506.141 35.0013 505.851 34.46C505.562 33.9093 505.417 33.256 505.417 32.5C505.417 31.744 505.562 31.0953 505.851 30.554C506.141 30.0033 506.537 29.5833 507.041 29.294C507.545 29.0047 508.119 28.86 508.763 28.86C509.417 28.86 509.972 29 510.429 29.28C510.896 29.56 511.251 29.9427 511.493 30.428C511.736 30.904 511.857 31.4407 511.857 32.038C511.857 32.1967 511.853 32.3413 511.843 32.472C511.834 32.6027 511.82 32.7193 511.801 32.822H506.145V31.828H511.311L510.737 31.94C510.737 31.268 510.551 30.75 510.177 30.386C509.813 30.022 509.333 29.84 508.735 29.84C508.278 29.84 507.881 29.9473 507.545 30.162C507.219 30.3673 506.962 30.6707 506.775 31.072C506.598 31.464 506.509 31.94 506.509 32.5C506.509 33.0507 506.603 33.5267 506.789 33.928C506.976 34.3293 507.237 34.6373 507.573 34.852C507.919 35.0573 508.329 35.16 508.805 35.16C509.319 35.16 509.734 35.062 510.051 34.866C510.378 34.67 510.639 34.404 510.835 34.068L511.717 34.586C511.54 34.9033 511.311 35.1787 511.031 35.412C510.761 35.6453 510.439 35.8273 510.065 35.958C509.701 36.0793 509.291 36.14 508.833 36.14ZM516.508 36.14C515.826 36.14 515.196 35.9953 514.618 35.706C514.048 35.4167 513.61 35.006 513.302 34.474L514.254 33.788C514.459 34.2173 514.758 34.5533 515.15 34.796C515.551 35.0387 516.032 35.16 516.592 35.16C517.086 35.16 517.474 35.0667 517.754 34.88C518.034 34.684 518.174 34.432 518.174 34.124C518.174 33.928 518.108 33.7507 517.978 33.592C517.856 33.424 517.618 33.3027 517.264 33.228L515.584 32.878C514.902 32.738 514.412 32.5047 514.114 32.178C513.824 31.8513 513.68 31.4453 513.68 30.96C513.68 30.5773 513.787 30.2273 514.002 29.91C514.226 29.5927 514.538 29.3407 514.94 29.154C515.35 28.958 515.831 28.86 516.382 28.86C517.072 28.86 517.656 28.9953 518.132 29.266C518.608 29.5367 518.962 29.9193 519.196 30.414L518.258 31.03C518.099 30.6193 517.842 30.3207 517.488 30.134C517.133 29.938 516.764 29.84 516.382 29.84C516.046 29.84 515.756 29.8867 515.514 29.98C515.28 30.0733 515.098 30.204 514.968 30.372C514.846 30.5307 514.786 30.7127 514.786 30.918C514.786 31.1233 514.856 31.3147 514.996 31.492C515.136 31.66 515.397 31.7813 515.78 31.856L517.53 32.22C518.183 32.3507 518.64 32.5653 518.902 32.864C519.163 33.1627 519.294 33.5267 519.294 33.956C519.294 34.3947 519.177 34.782 518.944 35.118C518.71 35.4447 518.384 35.6967 517.964 35.874C517.544 36.0513 517.058 36.14 516.508 36.14ZM523.022 27.012V34.068C523.022 34.4133 523.12 34.67 523.316 34.838C523.512 35.006 523.764 35.09 524.072 35.09C524.343 35.09 524.576 35.0433 524.772 34.95C524.968 34.8567 525.146 34.7307 525.304 34.572L525.696 35.51C525.482 35.706 525.225 35.86 524.926 35.972C524.637 36.084 524.301 36.14 523.918 36.14C523.564 36.14 523.232 36.0793 522.924 35.958C522.616 35.8273 522.369 35.6267 522.182 35.356C522.005 35.076 521.912 34.712 521.902 34.264V27.32L523.022 27.012ZM525.57 29V29.966H520.502V29H525.57ZM531.324 31.478C531.324 30.9553 531.184 30.554 530.904 30.274C530.624 29.9847 530.227 29.84 529.714 29.84C529.228 29.84 528.818 29.9473 528.482 30.162C528.146 30.3673 527.898 30.7033 527.74 31.17L526.83 30.61C527.016 30.0873 527.362 29.6673 527.866 29.35C528.37 29.0233 528.995 28.86 529.742 28.86C530.246 28.86 530.703 28.9487 531.114 29.126C531.524 29.294 531.846 29.5553 532.08 29.91C532.322 30.2553 532.444 30.7033 532.444 31.254V34.642C532.444 34.978 532.621 35.146 532.976 35.146C533.153 35.146 533.326 35.1227 533.494 35.076L533.438 35.958C533.251 36.0513 533.008 36.098 532.71 36.098C532.439 36.098 532.196 36.0467 531.982 35.944C531.767 35.8413 531.599 35.6873 531.478 35.482C531.356 35.2673 531.296 35.0013 531.296 34.684V34.544L531.576 34.586C531.464 34.95 531.272 35.2487 531.002 35.482C530.731 35.706 530.428 35.874 530.092 35.986C529.756 36.0887 529.424 36.14 529.098 36.14C528.687 36.14 528.304 36.07 527.95 35.93C527.595 35.79 527.31 35.58 527.096 35.3C526.89 35.0107 526.788 34.656 526.788 34.236C526.788 33.7133 526.96 33.284 527.306 32.948C527.66 32.6027 528.15 32.3693 528.776 32.248L531.548 31.702V32.626L529.294 33.088C528.836 33.1813 528.496 33.312 528.272 33.48C528.048 33.648 527.936 33.8813 527.936 34.18C527.936 34.4693 528.048 34.7073 528.272 34.894C528.505 35.0713 528.832 35.16 529.252 35.16C529.522 35.16 529.779 35.1273 530.022 35.062C530.274 34.9873 530.498 34.88 530.694 34.74C530.89 34.5907 531.044 34.4087 531.156 34.194C531.268 33.97 531.324 33.7087 531.324 33.41V31.478ZM536.544 27.012V34.068C536.544 34.4133 536.642 34.67 536.838 34.838C537.034 35.006 537.286 35.09 537.594 35.09C537.865 35.09 538.098 35.0433 538.294 34.95C538.49 34.8567 538.667 34.7307 538.826 34.572L539.218 35.51C539.003 35.706 538.747 35.86 538.448 35.972C538.159 36.084 537.823 36.14 537.44 36.14C537.085 36.14 536.754 36.0793 536.446 35.958C536.138 35.8273 535.891 35.6267 535.704 35.356C535.527 35.076 535.433 34.712 535.424 34.264V27.32L536.544 27.012ZM539.092 29V29.966H534.024V29H539.092ZM541.877 29V36H540.757V29H541.877ZM541.695 25.5H542.913L541.541 27.838H540.631L541.695 25.5ZM546.996 36.14C546.314 36.14 545.684 35.9953 545.106 35.706C544.536 35.4167 544.098 35.006 543.79 34.474L544.742 33.788C544.947 34.2173 545.246 34.5533 545.638 34.796C546.039 35.0387 546.52 35.16 547.08 35.16C547.574 35.16 547.962 35.0667 548.242 34.88C548.522 34.684 548.662 34.432 548.662 34.124C548.662 33.928 548.596 33.7507 548.466 33.592C548.344 33.424 548.106 33.3027 547.752 33.228L546.072 32.878C545.39 32.738 544.9 32.5047 544.602 32.178C544.312 31.8513 544.168 31.4453 544.168 30.96C544.168 30.5773 544.275 30.2273 544.49 29.91C544.714 29.5927 545.026 29.3407 545.428 29.154C545.838 28.958 546.319 28.86 546.87 28.86C547.56 28.86 548.144 28.9953 548.62 29.266C549.096 29.5367 549.45 29.9193 549.684 30.414L548.746 31.03C548.587 30.6193 548.33 30.3207 547.976 30.134C547.621 29.938 547.252 29.84 546.87 29.84C546.534 29.84 546.244 29.8867 546.002 29.98C545.768 30.0733 545.586 30.204 545.456 30.372C545.334 30.5307 545.274 30.7127 545.274 30.918C545.274 31.1233 545.344 31.3147 545.484 31.492C545.624 31.66 545.885 31.7813 546.268 31.856L548.018 32.22C548.671 32.3507 549.128 32.5653 549.39 32.864C549.651 33.1627 549.782 33.5267 549.782 33.956C549.782 34.3947 549.665 34.782 549.432 35.118C549.198 35.4447 548.872 35.6967 548.452 35.874C548.032 36.0513 547.546 36.14 546.996 36.14ZM553.511 27.012V34.068C553.511 34.4133 553.609 34.67 553.805 34.838C554.001 35.006 554.253 35.09 554.561 35.09C554.831 35.09 555.065 35.0433 555.261 34.95C555.457 34.8567 555.634 34.7307 555.793 34.572L556.185 35.51C555.97 35.706 555.713 35.86 555.415 35.972C555.125 36.084 554.789 36.14 554.407 36.14C554.052 36.14 553.721 36.0793 553.413 35.958C553.105 35.8273 552.857 35.6267 552.671 35.356C552.493 35.076 552.4 34.712 552.391 34.264V27.32L553.511 27.012ZM556.059 29V29.966H550.991V29H556.059ZM558.284 27.656C558.032 27.656 557.827 27.5813 557.668 27.432C557.519 27.2733 557.444 27.068 557.444 26.816C557.444 26.564 557.519 26.3633 557.668 26.214C557.827 26.0553 558.032 25.976 558.284 25.976C558.536 25.976 558.737 26.0553 558.886 26.214C559.045 26.3633 559.124 26.564 559.124 26.816C559.124 27.068 559.045 27.2733 558.886 27.432C558.737 27.5813 558.536 27.656 558.284 27.656ZM558.844 29V36H557.724V29H558.844ZM564.341 28.86C564.826 28.86 565.251 28.9347 565.615 29.084C565.988 29.2333 566.31 29.448 566.581 29.728C566.851 30.008 567.071 30.3393 567.239 30.722L566.175 31.226C566.025 30.778 565.797 30.4373 565.489 30.204C565.19 29.9613 564.798 29.84 564.313 29.84C563.846 29.84 563.445 29.9473 563.109 30.162C562.773 30.3673 562.516 30.6707 562.339 31.072C562.161 31.464 562.073 31.94 562.073 32.5C562.073 33.0507 562.161 33.5267 562.339 33.928C562.516 34.3293 562.773 34.6373 563.109 34.852C563.445 35.0573 563.846 35.16 564.313 35.16C564.677 35.16 564.989 35.104 565.251 34.992C565.521 34.88 565.741 34.7167 565.909 34.502C566.086 34.2873 566.207 34.026 566.273 33.718L567.309 34.082C567.15 34.5113 566.931 34.88 566.651 35.188C566.38 35.496 566.049 35.734 565.657 35.902C565.274 36.0607 564.835 36.14 564.341 36.14C563.687 36.14 563.104 35.9953 562.591 35.706C562.077 35.4167 561.676 35.0013 561.387 34.46C561.097 33.9093 560.953 33.256 560.953 32.5C560.953 31.744 561.097 31.0953 561.387 30.554C561.676 30.0033 562.077 29.5833 562.591 29.294C563.104 29.0047 563.687 28.86 564.341 28.86ZM573.365 31.478C573.365 30.9553 573.225 30.554 572.945 30.274C572.665 29.9847 572.268 29.84 571.755 29.84C571.269 29.84 570.859 29.9473 570.523 30.162C570.187 30.3673 569.939 30.7033 569.781 31.17L568.871 30.61C569.057 30.0873 569.403 29.6673 569.907 29.35C570.411 29.0233 571.036 28.86 571.783 28.86C572.287 28.86 572.744 28.9487 573.155 29.126C573.565 29.294 573.887 29.5553 574.121 29.91C574.363 30.2553 574.485 30.7033 574.485 31.254V34.642C574.485 34.978 574.662 35.146 575.017 35.146C575.194 35.146 575.367 35.1227 575.535 35.076L575.479 35.958C575.292 36.0513 575.049 36.098 574.751 36.098C574.48 36.098 574.237 36.0467 574.023 35.944C573.808 35.8413 573.64 35.6873 573.519 35.482C573.397 35.2673 573.337 35.0013 573.337 34.684V34.544L573.617 34.586C573.505 34.95 573.313 35.2487 573.043 35.482C572.772 35.706 572.469 35.874 572.133 35.986C571.797 36.0887 571.465 36.14 571.139 36.14C570.728 36.14 570.345 36.07 569.991 35.93C569.636 35.79 569.351 35.58 569.137 35.3C568.931 35.0107 568.829 34.656 568.829 34.236C568.829 33.7133 569.001 33.284 569.347 32.948C569.701 32.6027 570.191 32.3693 570.817 32.248L573.589 31.702V32.626L571.335 33.088C570.877 33.1813 570.537 33.312 570.313 33.48C570.089 33.648 569.977 33.8813 569.977 34.18C569.977 34.4693 570.089 34.7073 570.313 34.894C570.546 35.0713 570.873 35.16 571.293 35.16C571.563 35.16 571.82 35.1273 572.063 35.062C572.315 34.9873 572.539 34.88 572.735 34.74C572.931 34.5907 573.085 34.4087 573.197 34.194C573.309 33.97 573.365 33.7087 573.365 33.41V31.478ZM579.726 36.14C579.045 36.14 578.415 35.9953 577.836 35.706C577.267 35.4167 576.828 35.006 576.52 34.474L577.472 33.788C577.678 34.2173 577.976 34.5533 578.368 34.796C578.77 35.0387 579.25 35.16 579.81 35.16C580.305 35.16 580.692 35.0667 580.972 34.88C581.252 34.684 581.392 34.432 581.392 34.124C581.392 33.928 581.327 33.7507 581.196 33.592C581.075 33.424 580.837 33.3027 580.482 33.228L578.802 32.878C578.121 32.738 577.631 32.5047 577.332 32.178C577.043 31.8513 576.898 31.4453 576.898 30.96C576.898 30.5773 577.006 30.2273 577.22 29.91C577.444 29.5927 577.757 29.3407 578.158 29.154C578.569 28.958 579.05 28.86 579.6 28.86C580.291 28.86 580.874 28.9953 581.35 29.266C581.826 29.5367 582.181 29.9193 582.414 30.414L581.476 31.03C581.318 30.6193 581.061 30.3207 580.706 30.134C580.352 29.938 579.983 29.84 579.6 29.84C579.264 29.84 578.975 29.8867 578.732 29.98C578.499 30.0733 578.317 30.204 578.186 30.372C578.065 30.5307 578.004 30.7127 578.004 30.918C578.004 31.1233 578.074 31.3147 578.214 31.492C578.354 31.66 578.616 31.7813 578.998 31.856L580.748 32.22C581.402 32.3507 581.859 32.5653 582.12 32.864C582.382 33.1627 582.512 33.5267 582.512 33.956C582.512 34.3947 582.396 34.782 582.162 35.118C581.929 35.4447 581.602 35.6967 581.182 35.874C580.762 36.0513 580.277 36.14 579.726 36.14Z" fill="#F4F4F4" style="fill:#F4F4F4;fill:color(display-p3 0.9569 0.9569 0.9569);fill-opacity:1;"/>
<path d="M592 29L598.551 34L605 29" stroke="#F4F4F4" style="stroke:#F4F4F4;stroke:color(display-p3 0.9569 0.9569 0.9569);stroke-opacity:1;" stroke-linecap="round"/>
<path d="M628.333 24.8334C627.803 24.8334 627.294 25.0441 626.919 25.4192C626.544 25.7942 626.333 26.3029 626.333 26.8334V28.8334C626.333 29.2016 626.631 29.5 627 29.5C627.368 29.5 627.666 29.2016 627.666 28.8334V26.8334C627.666 26.6566 627.737 26.487 627.862 26.362C627.987 26.2369 628.156 26.1667 628.333 26.1667H630.333C630.701 26.1667 631 25.8682 631 25.5C631 25.1319 630.701 24.8334 630.333 24.8334H628.333Z" fill="#F4F4F4" style="fill:#F4F4F4;fill:color(display-p3 0.9569 0.9569 0.9569);fill-opacity:1;"/>
<path d="M635.666 24.8334C635.298 24.8334 635 25.1319 635 25.5C635 25.8682 635.298 26.1667 635.666 26.1667H637.666C637.843 26.1667 638.013 26.2369 638.138 26.362C638.263 26.487 638.333 26.6566 638.333 26.8334V28.8334C638.333 29.2016 638.631 29.5 639 29.5C639.368 29.5 639.666 29.2016 639.666 28.8334V26.8334C639.666 26.3029 639.456 25.7942 639.081 25.4192C638.705 25.0441 638.197 24.8334 637.666 24.8334H635.666Z" fill="#F4F4F4" style="fill:#F4F4F4;fill:color(display-p3 0.9569 0.9569 0.9569);fill-opacity:1;"/>
<path d="M627.666 34.1667C627.666 33.7985 627.368 33.5 627 33.5C626.631 33.5 626.333 33.7985 626.333 34.1667V36.1667C626.333 36.6971 626.544 37.2058 626.919 37.5809C627.294 37.956 627.803 38.1667 628.333 38.1667H630.333C630.701 38.1667 631 37.8682 631 37.5C631 37.1319 630.701 36.8334 630.333 36.8334H628.333C628.156 36.8334 627.987 36.7631 627.862 36.6381C627.737 36.5131 627.666 36.3435 627.666 36.1667V34.1667Z" fill="#F4F4F4" style="fill:#F4F4F4;fill:color(display-p3 0.9569 0.9569 0.9569);fill-opacity:1;"/>
<path d="M639.666 34.1667C639.666 33.7985 639.368 33.5 639 33.5C638.631 33.5 638.333 33.7985 638.333 34.1667V36.1667C638.333 36.3435 638.263 36.5131 638.138 36.6381C638.013 36.7631 637.843 36.8334 637.666 36.8334H635.666C635.298 36.8334 635 37.1319 635 37.5C635 37.8682 635.298 38.1667 635.666 38.1667H637.666C638.197 38.1667 638.705 37.956 639.081 37.5809C639.456 37.2058 639.666 36.6971 639.666 36.1667V34.1667Z" fill="#F4F4F4" style="fill:#F4F4F4;fill:color(display-p3 0.9569 0.9569 0.9569);fill-opacity:1;"/>
<path d="M653.032 36.14C652.453 36.14 651.921 35.9953 651.436 35.706C650.951 35.4167 650.563 35.0013 650.274 34.46C649.985 33.9093 649.84 33.256 649.84 32.5C649.84 31.7253 649.994 31.0673 650.302 30.526C650.61 29.9847 651.016 29.574 651.52 29.294C652.024 29.0047 652.565 28.86 653.144 28.86C653.723 28.86 654.222 29.0093 654.642 29.308C655.071 29.6067 655.356 30.0033 655.496 30.498L655.356 30.596V25.78H656.476V36H655.496L655.398 34.306L655.552 34.222C655.487 34.6327 655.328 34.9827 655.076 35.272C654.833 35.552 654.53 35.7667 654.166 35.916C653.811 36.0653 653.433 36.14 653.032 36.14ZM653.144 35.16C653.592 35.16 653.979 35.048 654.306 34.824C654.642 34.6 654.899 34.2827 655.076 33.872C655.263 33.452 655.356 32.962 655.356 32.402C655.356 31.87 655.263 31.4127 655.076 31.03C654.899 30.6473 654.647 30.3533 654.32 30.148C654.003 29.9427 653.629 29.84 653.2 29.84C652.491 29.84 651.94 30.0827 651.548 30.568C651.156 31.0533 650.96 31.6973 650.96 32.5C650.96 33.3027 651.151 33.9467 651.534 34.432C651.917 34.9173 652.453 35.16 653.144 35.16ZM663.167 31.478C663.167 30.9553 663.027 30.554 662.747 30.274C662.467 29.9847 662.071 29.84 661.557 29.84C661.072 29.84 660.661 29.9473 660.325 30.162C659.989 30.3673 659.742 30.7033 659.583 31.17L658.673 30.61C658.86 30.0873 659.205 29.6673 659.709 29.35C660.213 29.0233 660.839 28.86 661.585 28.86C662.089 28.86 662.547 28.9487 662.957 29.126C663.368 29.294 663.69 29.5553 663.923 29.91C664.166 30.2553 664.287 30.7033 664.287 31.254V34.642C664.287 34.978 664.465 35.146 664.819 35.146C664.997 35.146 665.169 35.1227 665.337 35.076L665.281 35.958C665.095 36.0513 664.852 36.098 664.553 36.098C664.283 36.098 664.04 36.0467 663.825 35.944C663.611 35.8413 663.443 35.6873 663.321 35.482C663.2 35.2673 663.139 35.0013 663.139 34.684V34.544L663.419 34.586C663.307 34.95 663.116 35.2487 662.845 35.482C662.575 35.706 662.271 35.874 661.935 35.986C661.599 36.0887 661.268 36.14 660.941 36.14C660.531 36.14 660.148 36.07 659.793 35.93C659.439 35.79 659.154 35.58 658.939 35.3C658.734 35.0107 658.631 34.656 658.631 34.236C658.631 33.7133 658.804 33.284 659.149 32.948C659.504 32.6027 659.994 32.3693 660.619 32.248L663.391 31.702V32.626L661.137 33.088C660.68 33.1813 660.339 33.312 660.115 33.48C659.891 33.648 659.779 33.8813 659.779 34.18C659.779 34.4693 659.891 34.7073 660.115 34.894C660.349 35.0713 660.675 35.16 661.095 35.16C661.366 35.16 661.623 35.1273 661.865 35.062C662.117 34.9873 662.341 34.88 662.537 34.74C662.733 34.5907 662.887 34.4087 662.999 34.194C663.111 33.97 663.167 33.7087 663.167 33.41V31.478ZM668.388 27.012V34.068C668.388 34.4133 668.486 34.67 668.682 34.838C668.878 35.006 669.13 35.09 669.438 35.09C669.708 35.09 669.942 35.0433 670.138 34.95C670.334 34.8567 670.511 34.7307 670.67 34.572L671.062 35.51C670.847 35.706 670.59 35.86 670.292 35.972C670.002 36.084 669.666 36.14 669.284 36.14C668.929 36.14 668.598 36.0793 668.29 35.958C667.982 35.8273 667.734 35.6267 667.548 35.356C667.37 35.076 667.277 34.712 667.268 34.264V27.32L668.388 27.012ZM670.936 29V29.966H665.868V29H670.936ZM676.689 31.478C676.689 30.9553 676.549 30.554 676.269 30.274C675.989 29.9847 675.592 29.84 675.079 29.84C674.593 29.84 674.183 29.9473 673.847 30.162C673.511 30.3673 673.263 30.7033 673.105 31.17L672.195 30.61C672.381 30.0873 672.727 29.6673 673.231 29.35C673.735 29.0233 674.36 28.86 675.107 28.86C675.611 28.86 676.068 28.9487 676.479 29.126C676.889 29.294 677.211 29.5553 677.445 29.91C677.687 30.2553 677.809 30.7033 677.809 31.254V34.642C677.809 34.978 677.986 35.146 678.341 35.146C678.518 35.146 678.691 35.1227 678.859 35.076L678.803 35.958C678.616 36.0513 678.373 36.098 678.075 36.098C677.804 36.098 677.561 36.0467 677.347 35.944C677.132 35.8413 676.964 35.6873 676.843 35.482C676.721 35.2673 676.661 35.0013 676.661 34.684V34.544L676.941 34.586C676.829 34.95 676.637 35.2487 676.367 35.482C676.096 35.706 675.793 35.874 675.457 35.986C675.121 36.0887 674.789 36.14 674.463 36.14C674.052 36.14 673.669 36.07 673.315 35.93C672.96 35.79 672.675 35.58 672.461 35.3C672.255 35.0107 672.153 34.656 672.153 34.236C672.153 33.7133 672.325 33.284 672.671 32.948C673.025 32.6027 673.515 32.3693 674.141 32.248L676.913 31.702V32.626L674.659 33.088C674.201 33.1813 673.861 33.312 673.637 33.48C673.413 33.648 673.301 33.8813 673.301 34.18C673.301 34.4693 673.413 34.7073 673.637 34.894C673.87 35.0713 674.197 35.16 674.617 35.16C674.887 35.16 675.144 35.1273 675.387 35.062C675.639 34.9873 675.863 34.88 676.059 34.74C676.255 34.5907 676.409 34.4087 676.521 34.194C676.633 33.97 676.689 33.7087 676.689 33.41V31.478ZM683.961 36.14C683.569 36.14 683.205 36.07 682.869 35.93C682.533 35.79 682.243 35.594 682.001 35.342C681.758 35.09 681.576 34.8053 681.455 34.488L681.609 34.292L681.511 36H680.531V25.78H681.651V30.582L681.511 30.372C681.697 29.9333 682.01 29.574 682.449 29.294C682.897 29.0047 683.405 28.86 683.975 28.86C684.553 28.86 685.085 29.0047 685.571 29.294C686.056 29.5833 686.443 29.9987 686.733 30.54C687.022 31.0813 687.167 31.7347 687.167 32.5C687.167 33.256 687.017 33.9093 686.719 34.46C686.429 35.0013 686.042 35.4167 685.557 35.706C685.071 35.9953 684.539 36.14 683.961 36.14ZM683.849 35.16C684.539 35.16 685.076 34.9173 685.459 34.432C685.851 33.9467 686.047 33.3027 686.047 32.5C686.047 31.6973 685.855 31.0533 685.473 30.568C685.09 30.0827 684.553 29.84 683.863 29.84C683.424 29.84 683.037 29.952 682.701 30.176C682.374 30.4 682.117 30.7127 681.931 31.114C681.744 31.5153 681.651 31.9867 681.651 32.528C681.651 33.06 681.739 33.5267 681.917 33.928C682.103 34.32 682.36 34.6233 682.687 34.838C683.023 35.0527 683.41 35.16 683.849 35.16ZM693.396 31.478C693.396 30.9553 693.256 30.554 692.976 30.274C692.696 29.9847 692.299 29.84 691.786 29.84C691.301 29.84 690.89 29.9473 690.554 30.162C690.218 30.3673 689.971 30.7033 689.812 31.17L688.902 30.61C689.089 30.0873 689.434 29.6673 689.938 29.35C690.442 29.0233 691.067 28.86 691.814 28.86C692.318 28.86 692.775 28.9487 693.186 29.126C693.597 29.294 693.919 29.5553 694.152 29.91C694.395 30.2553 694.516 30.7033 694.516 31.254V34.642C694.516 34.978 694.693 35.146 695.048 35.146C695.225 35.146 695.398 35.1227 695.566 35.076L695.51 35.958C695.323 36.0513 695.081 36.098 694.782 36.098C694.511 36.098 694.269 36.0467 694.054 35.944C693.839 35.8413 693.671 35.6873 693.55 35.482C693.429 35.2673 693.368 35.0013 693.368 34.684V34.544L693.648 34.586C693.536 34.95 693.345 35.2487 693.074 35.482C692.803 35.706 692.5 35.874 692.164 35.986C691.828 36.0887 691.497 36.14 691.17 36.14C690.759 36.14 690.377 36.07 690.022 35.93C689.667 35.79 689.383 35.58 689.168 35.3C688.963 35.0107 688.86 34.656 688.86 34.236C688.86 33.7133 689.033 33.284 689.378 32.948C689.733 32.6027 690.223 32.3693 690.848 32.248L693.62 31.702V32.626L691.366 33.088C690.909 33.1813 690.568 33.312 690.344 33.48C690.12 33.648 690.008 33.8813 690.008 34.18C690.008 34.4693 690.12 34.7073 690.344 34.894C690.577 35.0713 690.904 35.16 691.324 35.16C691.595 35.16 691.851 35.1273 692.094 35.062C692.346 34.9873 692.57 34.88 692.766 34.74C692.962 34.5907 693.116 34.4087 693.228 34.194C693.34 33.97 693.396 33.7087 693.396 33.41V31.478ZM699.758 36.14C699.076 36.14 698.446 35.9953 697.868 35.706C697.298 35.4167 696.86 35.006 696.552 34.474L697.504 33.788C697.709 34.2173 698.008 34.5533 698.4 34.796C698.801 35.0387 699.282 35.16 699.842 35.16C700.336 35.16 700.724 35.0667 701.004 34.88C701.284 34.684 701.424 34.432 701.424 34.124C701.424 33.928 701.358 33.7507 701.228 33.592C701.106 33.424 700.868 33.3027 700.514 33.228L698.834 32.878C698.152 32.738 697.662 32.5047 697.364 32.178C697.074 31.8513 696.93 31.4453 696.93 30.96C696.93 30.5773 697.037 30.2273 697.252 29.91C697.476 29.5927 697.788 29.3407 698.19 29.154C698.6 28.958 699.081 28.86 699.632 28.86C700.322 28.86 700.906 28.9953 701.382 29.266C701.858 29.5367 702.212 29.9193 702.446 30.414L701.508 31.03C701.349 30.6193 701.092 30.3207 700.738 30.134C700.383 29.938 700.014 29.84 699.632 29.84C699.296 29.84 699.006 29.8867 698.764 29.98C698.53 30.0733 698.348 30.204 698.218 30.372C698.096 30.5307 698.036 30.7127 698.036 30.918C698.036 31.1233 698.106 31.3147 698.246 31.492C698.386 31.66 698.647 31.7813 699.03 31.856L700.78 32.22C701.433 32.3507 701.89 32.5653 702.152 32.864C702.413 33.1627 702.544 33.5267 702.544 33.956C702.544 34.3947 702.427 34.782 702.194 35.118C701.96 35.4447 701.634 35.6967 701.214 35.874C700.794 36.0513 700.308 36.14 699.758 36.14ZM707.546 36.14C706.884 36.14 706.291 35.9953 705.768 35.706C705.255 35.4167 704.854 35.0013 704.564 34.46C704.275 33.9093 704.13 33.256 704.13 32.5C704.13 31.744 704.275 31.0953 704.564 30.554C704.854 30.0033 705.25 29.5833 705.754 29.294C706.258 29.0047 706.832 28.86 707.476 28.86C708.13 28.86 708.685 29 709.142 29.28C709.609 29.56 709.964 29.9427 710.206 30.428C710.449 30.904 710.57 31.4407 710.57 32.038C710.57 32.1967 710.566 32.3413 710.556 32.472C710.547 32.6027 710.533 32.7193 710.514 32.822H704.858V31.828H710.024L709.45 31.94C709.45 31.268 709.264 30.75 708.89 30.386C708.526 30.022 708.046 29.84 707.448 29.84C706.991 29.84 706.594 29.9473 706.258 30.162C705.932 30.3673 705.675 30.6707 705.488 31.072C705.311 31.464 705.222 31.94 705.222 32.5C705.222 33.0507 705.316 33.5267 705.502 33.928C705.689 34.3293 705.95 34.6373 706.286 34.852C706.632 35.0573 707.042 35.16 707.518 35.16C708.032 35.16 708.447 35.062 708.764 34.866C709.091 34.67 709.352 34.404 709.548 34.068L710.43 34.586C710.253 34.9033 710.024 35.1787 709.744 35.412C709.474 35.6453 709.152 35.8273 708.778 35.958C708.414 36.0793 708.004 36.14 707.546 36.14ZM715.22 36.14C714.539 36.14 713.909 35.9953 713.33 35.706C712.761 35.4167 712.322 35.006 712.014 34.474L712.966 33.788C713.172 34.2173 713.47 34.5533 713.862 34.796C714.264 35.0387 714.744 35.16 715.304 35.16C715.799 35.16 716.186 35.0667 716.466 34.88C716.746 34.684 716.886 34.432 716.886 34.124C716.886 33.928 716.821 33.7507 716.69 33.592C716.569 33.424 716.331 33.3027 715.976 33.228L714.296 32.878C713.615 32.738 713.125 32.5047 712.826 32.178C712.537 31.8513 712.392 31.4453 712.392 30.96C712.392 30.5773 712.5 30.2273 712.714 29.91C712.938 29.5927 713.251 29.3407 713.652 29.154C714.063 28.958 714.544 28.86 715.094 28.86C715.785 28.86 716.368 28.9953 716.844 29.266C717.32 29.5367 717.675 29.9193 717.908 30.414L716.97 31.03C716.812 30.6193 716.555 30.3207 716.2 30.134C715.846 29.938 715.477 29.84 715.094 29.84C714.758 29.84 714.469 29.8867 714.226 29.98C713.993 30.0733 713.811 30.204 713.68 30.372C713.559 30.5307 713.498 30.7127 713.498 30.918C713.498 31.1233 713.568 31.3147 713.708 31.492C713.848 31.66 714.11 31.7813 714.492 31.856L716.242 32.22C716.896 32.3507 717.353 32.5653 717.614 32.864C717.876 33.1627 718.006 33.5267 718.006 33.956C718.006 34.3947 717.89 34.782 717.656 35.118C717.423 35.4447 717.096 35.6967 716.676 35.874C716.256 36.0513 715.771 36.14 715.22 36.14ZM727.781 36.14C727.118 36.14 726.525 35.9953 726.003 35.706C725.489 35.4167 725.088 35.0013 724.799 34.46C724.509 33.9093 724.365 33.256 724.365 32.5C724.365 31.744 724.509 31.0953 724.799 30.554C725.088 30.0033 725.485 29.5833 725.989 29.294C726.493 29.0047 727.067 28.86 727.711 28.86C728.364 28.86 728.919 29 729.377 29.28C729.843 29.56 730.198 29.9427 730.441 30.428C730.683 30.904 730.805 31.4407 730.805 32.038C730.805 32.1967 730.8 32.3413 730.791 32.472C730.781 32.6027 730.767 32.7193 730.749 32.822H725.093V31.828H730.259L729.685 31.94C729.685 31.268 729.498 30.75 729.125 30.386C728.761 30.022 728.28 29.84 727.683 29.84C727.225 29.84 726.829 29.9473 726.493 30.162C726.166 30.3673 725.909 30.6707 725.723 31.072C725.545 31.464 725.457 31.94 725.457 32.5C725.457 33.0507 725.55 33.5267 725.737 33.928C725.923 34.3293 726.185 34.6373 726.521 34.852C726.866 35.0573 727.277 35.16 727.753 35.16C728.266 35.16 728.681 35.062 728.999 34.866C729.325 34.67 729.587 34.404 729.783 34.068L730.665 34.586C730.487 34.9033 730.259 35.1787 729.979 35.412C729.708 35.6453 729.386 35.8273 729.013 35.958C728.649 36.0793 728.238 36.14 727.781 36.14ZM741.985 29H743.161L740.249 36H739.129L736.217 29H737.491L739.703 34.866L741.985 29ZM745.744 29V36H744.624V29H745.744ZM745.562 25.5H746.78L745.408 27.838H744.498L745.562 25.5ZM748.343 36V29H749.323L749.421 30.568L749.239 30.414C749.388 30.0407 749.589 29.742 749.841 29.518C750.093 29.2847 750.382 29.1167 750.709 29.014C751.045 28.9113 751.39 28.86 751.745 28.86C752.249 28.86 752.706 28.958 753.117 29.154C753.528 29.3407 753.854 29.63 754.097 30.022C754.349 30.414 754.475 30.9133 754.475 31.52V36H753.355V31.912C753.355 31.1373 753.187 30.6007 752.851 30.302C752.524 29.994 752.118 29.84 751.633 29.84C751.297 29.84 750.961 29.9193 750.625 30.078C750.289 30.2367 750.009 30.4933 749.785 30.848C749.57 31.2027 749.463 31.6787 749.463 32.276V36H748.343ZM759.909 28.86C760.394 28.86 760.819 28.9347 761.183 29.084C761.556 29.2333 761.878 29.448 762.149 29.728C762.42 30.008 762.639 30.3393 762.807 30.722L761.743 31.226C761.594 30.778 761.365 30.4373 761.057 30.204C760.758 29.9613 760.366 29.84 759.881 29.84C759.414 29.84 759.013 29.9473 758.677 30.162C758.341 30.3673 758.084 30.6707 757.907 31.072C757.73 31.464 757.641 31.94 757.641 32.5C757.641 33.0507 757.73 33.5267 757.907 33.928C758.084 34.3293 758.341 34.6373 758.677 34.852C759.013 35.0573 759.414 35.16 759.881 35.16C760.245 35.16 760.558 35.104 760.819 34.992C761.09 34.88 761.309 34.7167 761.477 34.502C761.654 34.2873 761.776 34.026 761.841 33.718L762.877 34.082C762.718 34.5113 762.499 34.88 762.219 35.188C761.948 35.496 761.617 35.734 761.225 35.902C760.842 36.0607 760.404 36.14 759.909 36.14C759.256 36.14 758.672 35.9953 758.159 35.706C757.646 35.4167 757.244 35.0013 756.955 34.46C756.666 33.9093 756.521 33.256 756.521 32.5C756.521 31.744 756.666 31.0953 756.955 30.554C757.244 30.0033 757.646 29.5833 758.159 29.294C758.672 29.0047 759.256 28.86 759.909 28.86ZM767.379 36.14C766.931 36.14 766.506 36.056 766.105 35.888C765.713 35.72 765.391 35.4493 765.139 35.076C764.896 34.6933 764.775 34.1987 764.775 33.592V29H765.895V33.298C765.895 34.0073 766.049 34.4973 766.357 34.768C766.665 35.0293 767.099 35.16 767.659 35.16C767.92 35.16 768.177 35.118 768.429 35.034C768.681 34.9407 768.905 34.8007 769.101 34.614C769.306 34.418 769.465 34.1707 769.577 33.872C769.698 33.5733 769.759 33.2187 769.759 32.808V29H770.879V36H769.899L769.829 34.936C769.586 35.356 769.255 35.664 768.835 35.86C768.424 36.0467 767.939 36.14 767.379 36.14ZM774.55 25.78V34.222C774.55 34.5767 774.615 34.824 774.746 34.964C774.876 35.0947 775.086 35.16 775.376 35.16C775.562 35.16 775.716 35.146 775.838 35.118C775.959 35.09 776.122 35.0387 776.328 34.964L776.146 35.944C775.996 36.0093 775.833 36.056 775.656 36.084C775.478 36.1213 775.296 36.14 775.11 36.14C774.54 36.14 774.116 35.986 773.836 35.678C773.565 35.37 773.43 34.8987 773.43 34.264V25.78H774.55ZM780.663 28.86C781.326 28.86 781.909 29.0047 782.413 29.294C782.926 29.5833 783.328 30.0033 783.617 30.554C783.906 31.0953 784.051 31.744 784.051 32.5C784.051 33.256 783.906 33.9093 783.617 34.46C783.328 35.0013 782.926 35.4167 782.413 35.706C781.909 35.9953 781.326 36.14 780.663 36.14C780.01 36.14 779.426 35.9953 778.913 35.706C778.4 35.4167 777.998 35.0013 777.709 34.46C777.42 33.9093 777.275 33.256 777.275 32.5C777.275 31.744 777.42 31.0953 777.709 30.554C777.998 30.0033 778.4 29.5833 778.913 29.294C779.426 29.0047 780.01 28.86 780.663 28.86ZM780.663 29.826C780.187 29.826 779.781 29.9333 779.445 30.148C779.109 30.3627 778.848 30.6707 778.661 31.072C778.484 31.464 778.395 31.94 778.395 32.5C778.395 33.0507 778.484 33.5267 778.661 33.928C778.848 34.3293 779.109 34.6373 779.445 34.852C779.781 35.0667 780.187 35.174 780.663 35.174C781.139 35.174 781.545 35.0667 781.881 34.852C782.217 34.6373 782.474 34.3293 782.651 33.928C782.838 33.5267 782.931 33.0507 782.931 32.5C782.931 31.94 782.838 31.464 782.651 31.072C782.474 30.6707 782.217 30.3627 781.881 30.148C781.545 29.9333 781.139 29.826 780.663 29.826ZM788.679 36.14C787.998 36.14 787.368 35.9953 786.789 35.706C786.22 35.4167 785.781 35.006 785.473 34.474L786.425 33.788C786.631 34.2173 786.929 34.5533 787.321 34.796C787.723 35.0387 788.203 35.16 788.763 35.16C789.258 35.16 789.645 35.0667 789.925 34.88C790.205 34.684 790.345 34.432 790.345 34.124C790.345 33.928 790.28 33.7507 790.149 33.592C790.028 33.424 789.79 33.3027 789.435 33.228L787.755 32.878C787.074 32.738 786.584 32.5047 786.285 32.178C785.996 31.8513 785.851 31.4453 785.851 30.96C785.851 30.5773 785.959 30.2273 786.173 29.91C786.397 29.5927 786.71 29.3407 787.111 29.154C787.522 28.958 788.003 28.86 788.553 28.86C789.244 28.86 789.827 28.9953 790.303 29.266C790.779 29.5367 791.134 29.9193 791.367 30.414L790.429 31.03C790.271 30.6193 790.014 30.3207 789.659 30.134C789.305 29.938 788.936 29.84 788.553 29.84C788.217 29.84 787.928 29.8867 787.685 29.98C787.452 30.0733 787.27 30.204 787.139 30.372C787.018 30.5307 786.957 30.7127 786.957 30.918C786.957 31.1233 787.027 31.3147 787.167 31.492C787.307 31.66 787.569 31.7813 787.951 31.856L789.701 32.22C790.355 32.3507 790.812 32.5653 791.073 32.864C791.335 33.1627 791.465 33.5267 791.465 33.956C791.465 34.3947 791.349 34.782 791.115 35.118C790.882 35.4447 790.555 35.6967 790.135 35.874C789.715 36.0513 789.23 36.14 788.679 36.14Z" fill="#F4F4F4" style="fill:#F4F4F4;fill:color(display-p3 0.9569 0.9569 0.9569);fill-opacity:1;"/>
<path d="M801 29L807.551 34L814 29" stroke="#F4F4F4" style="stroke:#F4F4F4;stroke:color(display-p3 0.9569 0.9569 0.9569);stroke-opacity:1;" stroke-linecap="round"/>
<path d="M837.333 24.8334C836.803 24.8334 836.294 25.0441 835.919 25.4192C835.544 25.7942 835.333 26.3029 835.333 26.8334V28.8334C835.333 29.2016 835.631 29.5 836 29.5C836.368 29.5 836.666 29.2016 836.666 28.8334V26.8334C836.666 26.6566 836.737 26.487 836.862 26.362C836.987 26.2369 837.156 26.1667 837.333 26.1667H839.333C839.701 26.1667 840 25.8682 840 25.5C840 25.1319 839.701 24.8334 839.333 24.8334H837.333Z" fill="#F4F4F4" style="fill:#F4F4F4;fill:color(display-p3 0.9569 0.9569 0.9569);fill-opacity:1;"/>
<path d="M844.666 24.8334C844.298 24.8334 844 25.1319 844 25.5C844 25.8682 844.298 26.1667 844.666 26.1667H846.666C846.843 26.1667 847.013 26.2369 847.138 26.362C847.263 26.487 847.333 26.6566 847.333 26.8334V28.8334C847.333 29.2016 847.631 29.5 848 29.5C848.368 29.5 848.666 29.2016 848.666 28.8334V26.8334C848.666 26.3029 848.456 25.7942 848.081 25.4192C847.705 25.0441 847.197 24.8334 846.666 24.8334H844.666Z" fill="#F4F4F4" style="fill:#F4F4F4;fill:color(display-p3 0.9569 0.9569 0.9569);fill-opacity:1;"/>
<path d="M836.666 34.1667C836.666 33.7985 836.368 33.5 836 33.5C835.631 33.5 835.333 33.7985 835.333 34.1667V36.1667C835.333 36.6971 835.544 37.2058 835.919 37.5809C836.294 37.956 836.803 38.1667 837.333 38.1667H839.333C839.701 38.1667 840 37.8682 840 37.5C840 37.1319 839.701 36.8334 839.333 36.8334H837.333C837.156 36.8334 836.987 36.7631 836.862 36.6381C836.737 36.5131 836.666 36.3435 836.666 36.1667V34.1667Z" fill="#F4F4F4" style="fill:#F4F4F4;fill:color(display-p3 0.9569 0.9569 0.9569);fill-opacity:1;"/>
<path d="M848.666 34.1667C848.666 33.7985 848.368 33.5 848 33.5C847.631 33.5 847.333 33.7985 847.333 34.1667V36.1667C847.333 36.3435 847.263 36.5131 847.138 36.6381C847.013 36.7631 846.843 36.8334 846.666 36.8334H844.666C844.298 36.8334 844 37.1319 844 37.5C844 37.8682 844.298 38.1667 844.666 38.1667H846.666C847.197 38.1667 847.705 37.956 848.081 37.5809C848.456 37.2058 848.666 36.6971 848.666 36.1667V34.1667Z" fill="#F4F4F4" style="fill:#F4F4F4;fill:color(display-p3 0.9569 0.9569 0.9569);fill-opacity:1;"/>
<path d="M859.302 38.94V29H860.282L860.38 30.708L860.226 30.512C860.347 30.1853 860.529 29.9007 860.772 29.658C861.015 29.406 861.309 29.21 861.654 29.07C861.999 28.93 862.373 28.86 862.774 28.86C863.343 28.86 863.866 29.0047 864.342 29.294C864.827 29.5833 865.215 29.9987 865.504 30.54C865.793 31.0813 865.938 31.7347 865.938 32.5C865.938 33.256 865.789 33.9093 865.49 34.46C865.201 35.0013 864.813 35.4167 864.328 35.706C863.843 35.9953 863.311 36.14 862.732 36.14C862.153 36.14 861.645 36 861.206 35.72C860.777 35.4307 860.469 35.0667 860.282 34.628L860.422 34.418V38.94H859.302ZM862.62 35.16C863.311 35.16 863.847 34.9173 864.23 34.432C864.622 33.9467 864.818 33.3027 864.818 32.5C864.818 31.6973 864.627 31.0533 864.244 30.568C863.871 30.0827 863.343 29.84 862.662 29.84C862.214 29.84 861.822 29.952 861.486 30.176C861.15 30.3907 860.889 30.6987 860.702 31.1C860.515 31.492 860.422 31.9587 860.422 32.5C860.422 33.032 860.511 33.4987 860.688 33.9C860.875 34.3013 861.131 34.614 861.458 34.838C861.794 35.0527 862.181 35.16 862.62 35.16ZM872.167 31.478C872.167 30.9553 872.027 30.554 871.747 30.274C871.467 29.9847 871.071 29.84 870.557 29.84C870.072 29.84 869.661 29.9473 869.325 30.162C868.989 30.3673 868.742 30.7033 868.583 31.17L867.673 30.61C867.86 30.0873 868.205 29.6673 868.709 29.35C869.213 29.0233 869.839 28.86 870.585 28.86C871.089 28.86 871.547 28.9487 871.957 29.126C872.368 29.294 872.69 29.5553 872.923 29.91C873.166 30.2553 873.287 30.7033 873.287 31.254V34.642C873.287 34.978 873.465 35.146 873.819 35.146C873.997 35.146 874.169 35.1227 874.337 35.076L874.281 35.958C874.095 36.0513 873.852 36.098 873.553 36.098C873.283 36.098 873.04 36.0467 872.825 35.944C872.611 35.8413 872.443 35.6873 872.321 35.482C872.2 35.2673 872.139 35.0013 872.139 34.684V34.544L872.419 34.586C872.307 34.95 872.116 35.2487 871.845 35.482C871.575 35.706 871.271 35.874 870.935 35.986C870.599 36.0887 870.268 36.14 869.941 36.14C869.531 36.14 869.148 36.07 868.793 35.93C868.439 35.79 868.154 35.58 867.939 35.3C867.734 35.0107 867.631 34.656 867.631 34.236C867.631 33.7133 867.804 33.284 868.149 32.948C868.504 32.6027 868.994 32.3693 869.619 32.248L872.391 31.702V32.626L870.137 33.088C869.68 33.1813 869.339 33.312 869.115 33.48C868.891 33.648 868.779 33.8813 868.779 34.18C868.779 34.4693 868.891 34.7073 869.115 34.894C869.349 35.0713 869.675 35.16 870.095 35.16C870.366 35.16 870.623 35.1273 870.865 35.062C871.117 34.9873 871.341 34.88 871.537 34.74C871.733 34.5907 871.887 34.4087 871.999 34.194C872.111 33.97 872.167 33.7087 872.167 33.41V31.478ZM881.903 27.712L882.155 28.706C882.146 28.706 882.132 28.706 882.113 28.706C882.094 28.706 882.076 28.706 882.057 28.706C881.6 28.706 881.245 28.7993 880.993 28.986C880.75 29.1633 880.629 29.4527 880.629 29.854L879.943 29.504C879.943 29.14 880.027 28.8227 880.195 28.552C880.363 28.2813 880.592 28.076 880.881 27.936C881.17 27.7867 881.488 27.712 881.833 27.712C881.842 27.712 881.852 27.712 881.861 27.712C881.88 27.712 881.894 27.712 881.903 27.712ZM879.775 35.104C880.438 35.104 880.956 35.258 881.329 35.566C881.702 35.8647 881.889 36.266 881.889 36.77C881.889 37.2273 881.735 37.624 881.427 37.96C881.128 38.296 880.722 38.5527 880.209 38.73C879.705 38.9167 879.136 39.01 878.501 39.01C877.4 39.01 876.574 38.8233 876.023 38.45C875.482 38.0767 875.211 37.6287 875.211 37.106C875.211 36.7327 875.332 36.3967 875.575 36.098C875.827 35.8087 876.247 35.6453 876.835 35.608L876.737 35.818C876.42 35.734 876.149 35.594 875.925 35.398C875.71 35.1927 875.603 34.8987 875.603 34.516C875.603 34.1333 875.743 33.8067 876.023 33.536C876.312 33.256 876.737 33.0833 877.297 33.018L878.039 33.396H877.899C877.442 33.4427 877.115 33.5593 876.919 33.746C876.732 33.9233 876.639 34.1193 876.639 34.334C876.639 34.5953 876.732 34.7913 876.919 34.922C877.115 35.0433 877.386 35.104 877.731 35.104H879.775ZM878.487 38.072C879.028 38.072 879.472 38.016 879.817 37.904C880.172 37.792 880.433 37.6473 880.601 37.47C880.769 37.2927 880.853 37.1013 880.853 36.896C880.853 36.644 880.75 36.4433 880.545 36.294C880.349 36.1447 879.99 36.07 879.467 36.07H877.311C877.012 36.07 876.76 36.1447 876.555 36.294C876.35 36.4527 876.247 36.6673 876.247 36.938C876.247 37.2833 876.443 37.5587 876.835 37.764C877.236 37.9693 877.787 38.072 878.487 38.072ZM878.389 28.86C878.949 28.86 879.444 28.9627 879.873 29.168C880.312 29.364 880.652 29.6393 880.895 29.994C881.138 30.3487 881.259 30.7593 881.259 31.226C881.259 31.6833 881.138 32.094 880.895 32.458C880.652 32.8127 880.312 33.0927 879.873 33.298C879.444 33.494 878.949 33.592 878.389 33.592C877.465 33.592 876.756 33.3727 876.261 32.934C875.766 32.486 875.519 31.9167 875.519 31.226C875.519 30.7593 875.64 30.3487 875.883 29.994C876.135 29.6393 876.476 29.364 876.905 29.168C877.334 28.9627 877.829 28.86 878.389 28.86ZM878.389 29.77C877.904 29.77 877.498 29.9053 877.171 30.176C876.844 30.4373 876.681 30.7873 876.681 31.226C876.681 31.6553 876.844 32.0053 877.171 32.276C877.498 32.5467 877.904 32.682 878.389 32.682C878.874 32.682 879.28 32.5467 879.607 32.276C879.934 32.0053 880.097 31.6553 880.097 31.226C880.097 30.7873 879.934 30.4373 879.607 30.176C879.28 29.9053 878.874 29.77 878.389 29.77ZM887.548 31.478C887.548 30.9553 887.408 30.554 887.128 30.274C886.848 29.9847 886.452 29.84 885.938 29.84C885.453 29.84 885.042 29.9473 884.706 30.162C884.37 30.3673 884.123 30.7033 883.964 31.17L883.054 30.61C883.241 30.0873 883.586 29.6673 884.09 29.35C884.594 29.0233 885.22 28.86 885.966 28.86C886.47 28.86 886.928 28.9487 887.338 29.126C887.749 29.294 888.071 29.5553 888.304 29.91C888.547 30.2553 888.668 30.7033 888.668 31.254V34.642C888.668 34.978 888.846 35.146 889.2 35.146C889.378 35.146 889.55 35.1227 889.718 35.076L889.662 35.958C889.476 36.0513 889.233 36.098 888.934 36.098C888.664 36.098 888.421 36.0467 888.206 35.944C887.992 35.8413 887.824 35.6873 887.702 35.482C887.581 35.2673 887.52 35.0013 887.52 34.684V34.544L887.8 34.586C887.688 34.95 887.497 35.2487 887.226 35.482C886.956 35.706 886.652 35.874 886.316 35.986C885.98 36.0887 885.649 36.14 885.322 36.14C884.912 36.14 884.529 36.07 884.174 35.93C883.82 35.79 883.535 35.58 883.32 35.3C883.115 35.0107 883.012 34.656 883.012 34.236C883.012 33.7133 883.185 33.284 883.53 32.948C883.885 32.6027 884.375 32.3693 885 32.248L887.772 31.702V32.626L885.518 33.088C885.061 33.1813 884.72 33.312 884.496 33.48C884.272 33.648 884.16 33.8813 884.16 34.18C884.16 34.4693 884.272 34.7073 884.496 34.894C884.73 35.0713 885.056 35.16 885.476 35.16C885.747 35.16 886.004 35.1273 886.246 35.062C886.498 34.9873 886.722 34.88 886.918 34.74C887.114 34.5907 887.268 34.4087 887.38 34.194C887.492 33.97 887.548 33.7087 887.548 33.41V31.478ZM891.39 36V29H892.37L892.44 30.092C892.692 29.6627 893.019 29.35 893.42 29.154C893.831 28.958 894.251 28.86 894.68 28.86C895.175 28.86 895.641 28.972 896.08 29.196C896.519 29.42 896.855 29.7653 897.088 30.232C897.237 29.9147 897.447 29.658 897.718 29.462C897.989 29.2567 898.283 29.1073 898.6 29.014C898.927 28.9113 899.235 28.86 899.524 28.86C899.972 28.86 900.397 28.9533 900.798 29.14C901.209 29.3267 901.545 29.616 901.806 30.008C902.067 30.4 902.198 30.904 902.198 31.52V36H901.078V31.632C901.078 30.9973 900.919 30.54 900.602 30.26C900.285 29.98 899.893 29.84 899.426 29.84C899.062 29.84 898.721 29.9287 898.404 30.106C898.087 30.2833 897.83 30.5447 897.634 30.89C897.447 31.2353 897.354 31.66 897.354 32.164V36H896.234V31.632C896.234 30.9973 896.075 30.54 895.758 30.26C895.441 29.98 895.049 29.84 894.582 29.84C894.274 29.84 893.957 29.924 893.63 30.092C893.313 30.2507 893.047 30.5073 892.832 30.862C892.617 31.2167 892.51 31.6833 892.51 32.262V36H891.39ZM907.66 36.14C906.997 36.14 906.404 35.9953 905.882 35.706C905.368 35.4167 904.967 35.0013 904.678 34.46C904.388 33.9093 904.244 33.256 904.244 32.5C904.244 31.744 904.388 31.0953 904.678 30.554C904.967 30.0033 905.364 29.5833 905.868 29.294C906.372 29.0047 906.946 28.86 907.59 28.86C908.243 28.86 908.798 29 909.256 29.28C909.722 29.56 910.077 29.9427 910.32 30.428C910.562 30.904 910.684 31.4407 910.684 32.038C910.684 32.1967 910.679 32.3413 910.67 32.472C910.66 32.6027 910.646 32.7193 910.628 32.822H904.972V31.828H910.138L909.564 31.94C909.564 31.268 909.377 30.75 909.004 30.386C908.64 30.022 908.159 29.84 907.562 29.84C907.104 29.84 906.708 29.9473 906.372 30.162C906.045 30.3673 905.788 30.6707 905.602 31.072C905.424 31.464 905.336 31.94 905.336 32.5C905.336 33.0507 905.429 33.5267 905.616 33.928C905.802 34.3293 906.064 34.6373 906.4 34.852C906.745 35.0573 907.156 35.16 907.632 35.16C908.145 35.16 908.56 35.062 908.878 34.866C909.204 34.67 909.466 34.404 909.662 34.068L910.544 34.586C910.366 34.9033 910.138 35.1787 909.858 35.412C909.587 35.6453 909.265 35.8273 908.892 35.958C908.528 36.0793 908.117 36.14 907.66 36.14ZM912.814 36V29H913.794L913.892 30.568L913.71 30.414C913.859 30.0407 914.06 29.742 914.312 29.518C914.564 29.2847 914.853 29.1167 915.18 29.014C915.516 28.9113 915.861 28.86 916.216 28.86C916.72 28.86 917.177 28.958 917.588 29.154C917.998 29.3407 918.325 29.63 918.568 30.022C918.82 30.414 918.946 30.9133 918.946 31.52V36H917.826V31.912C917.826 31.1373 917.658 30.6007 917.322 30.302C916.995 29.994 916.589 29.84 916.104 29.84C915.768 29.84 915.432 29.9193 915.096 30.078C914.76 30.2367 914.48 30.4933 914.256 30.848C914.041 31.2027 913.934 31.6787 913.934 32.276V36H912.814ZM923.038 27.012V34.068C923.038 34.4133 923.136 34.67 923.332 34.838C923.528 35.006 923.78 35.09 924.088 35.09C924.359 35.09 924.592 35.0433 924.788 34.95C924.984 34.8567 925.161 34.7307 925.32 34.572L925.712 35.51C925.497 35.706 925.241 35.86 924.942 35.972C924.653 36.084 924.317 36.14 923.934 36.14C923.579 36.14 923.248 36.0793 922.94 35.958C922.632 35.8273 922.385 35.6267 922.198 35.356C922.021 35.076 921.927 34.712 921.918 34.264V27.32L923.038 27.012ZM925.586 29V29.966H920.518V29H925.586ZM930.149 28.86C930.812 28.86 931.395 29.0047 931.899 29.294C932.413 29.5833 932.814 30.0033 933.103 30.554C933.393 31.0953 933.537 31.744 933.537 32.5C933.537 33.256 933.393 33.9093 933.103 34.46C932.814 35.0013 932.413 35.4167 931.899 35.706C931.395 35.9953 930.812 36.14 930.149 36.14C929.496 36.14 928.913 35.9953 928.399 35.706C927.886 35.4167 927.485 35.0013 927.195 34.46C926.906 33.9093 926.761 33.256 926.761 32.5C926.761 31.744 926.906 31.0953 927.195 30.554C927.485 30.0033 927.886 29.5833 928.399 29.294C928.913 29.0047 929.496 28.86 930.149 28.86ZM930.149 29.826C929.673 29.826 929.267 29.9333 928.931 30.148C928.595 30.3627 928.334 30.6707 928.147 31.072C927.97 31.464 927.881 31.94 927.881 32.5C927.881 33.0507 927.97 33.5267 928.147 33.928C928.334 34.3293 928.595 34.6373 928.931 34.852C929.267 35.0667 929.673 35.174 930.149 35.174C930.625 35.174 931.031 35.0667 931.367 34.852C931.703 34.6373 931.96 34.3293 932.137 33.928C932.324 33.5267 932.417 33.0507 932.417 32.5C932.417 31.94 932.324 31.464 932.137 31.072C931.96 30.6707 931.703 30.3627 931.367 30.148C931.031 29.9333 930.625 29.826 930.149 29.826ZM938.166 36.14C937.484 36.14 936.854 35.9953 936.276 35.706C935.706 35.4167 935.268 35.006 934.96 34.474L935.912 33.788C936.117 34.2173 936.416 34.5533 936.808 34.796C937.209 35.0387 937.69 35.16 938.25 35.16C938.744 35.16 939.132 35.0667 939.412 34.88C939.692 34.684 939.832 34.432 939.832 34.124C939.832 33.928 939.766 33.7507 939.636 33.592C939.514 33.424 939.276 33.3027 938.922 33.228L937.242 32.878C936.56 32.738 936.07 32.5047 935.772 32.178C935.482 31.8513 935.338 31.4453 935.338 30.96C935.338 30.5773 935.445 30.2273 935.66 29.91C935.884 29.5927 936.196 29.3407 936.598 29.154C937.008 28.958 937.489 28.86 938.04 28.86C938.73 28.86 939.314 28.9953 939.79 29.266C940.266 29.5367 940.62 29.9193 940.854 30.414L939.916 31.03C939.757 30.6193 939.5 30.3207 939.146 30.134C938.791 29.938 938.422 29.84 938.04 29.84C937.704 29.84 937.414 29.8867 937.172 29.98C936.938 30.0733 936.756 30.204 936.626 30.372C936.504 30.5307 936.444 30.7127 936.444 30.918C936.444 31.1233 936.514 31.3147 936.654 31.492C936.794 31.66 937.055 31.7813 937.438 31.856L939.188 32.22C939.841 32.3507 940.298 32.5653 940.56 32.864C940.821 33.1627 940.952 33.5267 940.952 33.956C940.952 34.3947 940.835 34.782 940.602 35.118C940.368 35.4447 940.042 35.6967 939.622 35.874C939.202 36.0513 938.716 36.14 938.166 36.14Z" fill="#F4F4F4" style="fill:#F4F4F4;fill:color(display-p3 0.9569 0.9569 0.9569);fill-opacity:1;"/>
<path d="M950 29L956.551 34L963 29" stroke="#F4F4F4" style="stroke:#F4F4F4;stroke:color(display-p3 0.9569 0.9569 0.9569);stroke-opacity:1;" stroke-linecap="round"/>
<path d="M986.333 26.8334C985.803 26.8334 985.294 27.0441 984.919 27.4192C984.544 27.7942 984.333 28.3029 984.333 28.8334V30.8334C984.333 31.2016 984.631 31.5 985 31.5C985.368 31.5 985.666 31.2016 985.666 30.8334V28.8334C985.666 28.6566 985.737 28.487 985.862 28.362C985.987 28.2369 986.156 28.1667 986.333 28.1667H988.333C988.701 28.1667 989 27.8682 989 27.5C989 27.1319 988.701 26.8334 988.333 26.8334H986.333Z" fill="#F4F4F4" style="fill:#F4F4F4;fill:color(display-p3 0.9569 0.9569 0.9569);fill-opacity:1;"/>
<path d="M993.666 26.8334C993.298 26.8334 993 27.1319 993 27.5C993 27.8682 993.298 28.1667 993.666 28.1667H995.666C995.843 28.1667 996.013 28.2369 996.138 28.362C996.263 28.487 996.333 28.6566 996.333 28.8334V30.8334C996.333 31.2016 996.631 31.5 997 31.5C997.368 31.5 997.666 31.2016 997.666 30.8334V28.8334C997.666 28.3029 997.456 27.7942 997.081 27.4192C996.705 27.0441 996.197 26.8334 995.666 26.8334H993.666Z" fill="#F4F4F4" style="fill:#F4F4F4;fill:color(display-p3 0.9569 0.9569 0.9569);fill-opacity:1;"/>
<path d="M985.666 36.1667C985.666 35.7985 985.368 35.5 985 35.5C984.631 35.5 984.333 35.7985 984.333 36.1667V38.1667C984.333 38.6971 984.544 39.2058 984.919 39.5809C985.294 39.956 985.803 40.1667 986.333 40.1667H988.333C988.701 40.1667 989 39.8682 989 39.5C989 39.1319 988.701 38.8334 988.333 38.8334H986.333C986.156 38.8334 985.987 38.7631 985.862 38.6381C985.737 38.5131 985.666 38.3435 985.666 38.1667V36.1667Z" fill="#F4F4F4" style="fill:#F4F4F4;fill:color(display-p3 0.9569 0.9569 0.9569);fill-opacity:1;"/>
<path d="M997.666 36.1667C997.666 35.7985 997.368 35.5 997 35.5C996.631 35.5 996.333 35.7985 996.333 36.1667V38.1667C996.333 38.3435 996.263 38.5131 996.138 38.6381C996.013 38.7631 995.843 38.8334 995.666 38.8334H993.666C993.298 38.8334 993 39.1319 993 39.5C993 39.8682 993.298 40.1667 993.666 40.1667H995.666C996.197 40.1667 996.705 39.956 997.081 39.5809C997.456 39.2058 997.666 38.6971 997.666 38.1667V36.1667Z" fill="#F4F4F4" style="fill:#F4F4F4;fill:color(display-p3 0.9569 0.9569 0.9569);fill-opacity:1;"/>
<path d="M1011.14 27.71C1011.39 27.71 1011.62 27.738 1011.83 27.794C1012.04 27.85 1012.21 27.9293 1012.33 28.032L1012.04 28.942C1011.93 28.8673 1011.81 28.816 1011.68 28.788C1011.55 28.7507 1011.4 28.732 1011.24 28.732C1010.84 28.732 1010.53 28.83 1010.3 29.026C1010.08 29.2127 1009.97 29.516 1009.97 29.936V31V31.364V38H1008.85V29.824C1008.85 29.516 1008.89 29.2313 1008.99 28.97C1009.08 28.7087 1009.22 28.4847 1009.41 28.298C1009.6 28.1113 1009.85 27.9667 1010.14 27.864C1010.43 27.7613 1010.76 27.71 1011.14 27.71ZM1012.31 31V31.966H1007.45V31H1012.31ZM1016.33 38.14C1015.88 38.14 1015.46 38.056 1015.06 37.888C1014.67 37.72 1014.34 37.4493 1014.09 37.076C1013.85 36.6933 1013.73 36.1987 1013.73 35.592V31H1014.85V35.298C1014.85 36.0073 1015 36.4973 1015.31 36.768C1015.62 37.0293 1016.05 37.16 1016.61 37.16C1016.87 37.16 1017.13 37.118 1017.38 37.034C1017.63 36.9407 1017.86 36.8007 1018.05 36.614C1018.26 36.418 1018.42 36.1707 1018.53 35.872C1018.65 35.5733 1018.71 35.2187 1018.71 34.808V31H1019.83V38H1018.85L1018.78 36.936C1018.54 37.356 1018.21 37.664 1017.79 37.86C1017.38 38.0467 1016.89 38.14 1016.33 38.14ZM1022.44 38V31H1023.42L1023.52 32.568L1023.33 32.414C1023.48 32.0407 1023.68 31.742 1023.94 31.518C1024.19 31.2847 1024.48 31.1167 1024.8 31.014C1025.14 30.9113 1025.49 30.86 1025.84 30.86C1026.34 30.86 1026.8 30.958 1027.21 31.154C1027.62 31.3407 1027.95 31.63 1028.19 32.022C1028.44 32.414 1028.57 32.9133 1028.57 33.52V38H1027.45V33.912C1027.45 33.1373 1027.28 32.6007 1026.95 32.302C1026.62 31.994 1026.21 31.84 1025.73 31.84C1025.39 31.84 1025.06 31.9193 1024.72 32.078C1024.38 32.2367 1024.1 32.4933 1023.88 32.848C1023.67 33.2027 1023.56 33.6787 1023.56 34.276V38H1022.44ZM1034 30.86C1034.49 30.86 1034.91 30.9347 1035.28 31.084C1035.65 31.2333 1035.97 31.448 1036.24 31.728C1036.52 32.008 1036.73 32.3393 1036.9 32.722L1035.84 33.226C1035.69 32.778 1035.46 32.4373 1035.15 32.204C1034.85 31.9613 1034.46 31.84 1033.98 31.84C1033.51 31.84 1033.11 31.9473 1032.77 32.162C1032.44 32.3673 1032.18 32.6707 1032 33.072C1031.83 33.464 1031.74 33.94 1031.74 34.5C1031.74 35.0507 1031.83 35.5267 1032 35.928C1032.18 36.3293 1032.44 36.6373 1032.77 36.852C1033.11 37.0573 1033.51 37.16 1033.98 37.16C1034.34 37.16 1034.65 37.104 1034.91 36.992C1035.19 36.88 1035.4 36.7167 1035.57 36.502C1035.75 36.2873 1035.87 36.026 1035.94 35.718L1036.97 36.082C1036.81 36.5113 1036.59 36.88 1036.31 37.188C1036.04 37.496 1035.71 37.734 1035.32 37.902C1034.94 38.0607 1034.5 38.14 1034 38.14C1033.35 38.14 1032.77 37.9953 1032.25 37.706C1031.74 37.4167 1031.34 37.0013 1031.05 36.46C1030.76 35.9093 1030.62 35.256 1030.62 34.5C1030.62 33.744 1030.76 33.0953 1031.05 32.554C1031.34 32.0033 1031.74 31.5833 1032.25 31.294C1032.77 31.0047 1033.35 30.86 1034 30.86ZM1033.22 37.944L1033.81 37.594C1034.36 37.7713 1034.75 38.0093 1034.98 38.308C1035.22 38.616 1035.33 38.9753 1035.33 39.386C1035.33 39.834 1035.18 40.2167 1034.86 40.534C1034.54 40.8513 1034.14 41.01 1033.64 41.01C1033.35 41.01 1033.09 40.9727 1032.87 40.898C1032.66 40.8233 1032.47 40.7253 1032.31 40.604L1032.58 39.792C1032.71 39.876 1032.84 39.9507 1032.98 40.016C1033.13 40.0813 1033.31 40.114 1033.51 40.114C1033.78 40.114 1033.99 40.03 1034.16 39.862C1034.33 39.694 1034.41 39.4513 1034.41 39.134C1034.41 38.8913 1034.32 38.6813 1034.14 38.504C1033.97 38.3267 1033.66 38.14 1033.22 37.944ZM1041.84 30.86C1042.5 30.86 1043.08 31.0047 1043.59 31.294C1044.1 31.5833 1044.5 32.0033 1044.79 32.554C1045.08 33.0953 1045.23 33.744 1045.23 34.5C1045.23 35.256 1045.08 35.9093 1044.79 36.46C1044.5 37.0013 1044.1 37.4167 1043.59 37.706C1043.08 37.9953 1042.5 38.14 1041.84 38.14C1041.19 38.14 1040.6 37.9953 1040.09 37.706C1039.58 37.4167 1039.17 37.0013 1038.88 36.46C1038.6 35.9093 1038.45 35.256 1038.45 34.5C1038.45 33.744 1038.6 33.0953 1038.88 32.554C1039.17 32.0033 1039.58 31.5833 1040.09 31.294C1040.6 31.0047 1041.19 30.86 1041.84 30.86ZM1041.84 31.826C1041.36 31.826 1040.96 31.9333 1040.62 32.148C1040.28 32.3627 1040.02 32.6707 1039.84 33.072C1039.66 33.464 1039.57 33.94 1039.57 34.5C1039.57 35.0507 1039.66 35.5267 1039.84 35.928C1040.02 36.3293 1040.28 36.6373 1040.62 36.852C1040.96 37.0667 1041.36 37.174 1041.84 37.174C1042.31 37.174 1042.72 37.0667 1043.06 36.852C1043.39 36.6373 1043.65 36.3293 1043.83 35.928C1044.01 35.5267 1044.11 35.0507 1044.11 34.5C1044.11 33.94 1044.01 33.464 1043.83 33.072C1043.65 32.6707 1043.39 32.3627 1043.06 32.148C1042.72 31.9333 1042.31 31.826 1041.84 31.826ZM1044.36 27.962C1044.33 28.3727 1044.25 28.718 1044.12 28.998C1044 29.278 1043.83 29.488 1043.6 29.628C1043.39 29.768 1043.12 29.838 1042.79 29.838C1042.53 29.838 1042.31 29.7913 1042.12 29.698C1041.94 29.5953 1041.79 29.4833 1041.66 29.362C1041.53 29.2407 1041.4 29.1333 1041.26 29.04C1041.14 28.9373 1041.01 28.886 1040.86 28.886C1040.65 28.886 1040.5 28.9747 1040.4 29.152C1040.29 29.32 1040.22 29.5533 1040.17 29.852H1039.29C1039.34 29.236 1039.49 28.7693 1039.74 28.452C1040 28.1347 1040.38 27.976 1040.87 27.976C1041.12 27.976 1041.34 28.0273 1041.52 28.13C1041.7 28.2233 1041.86 28.3307 1041.99 28.452C1042.13 28.5733 1042.26 28.6853 1042.38 28.788C1042.51 28.8813 1042.64 28.928 1042.78 28.928C1042.99 28.928 1043.15 28.844 1043.25 28.676C1043.36 28.4987 1043.43 28.2607 1043.48 27.962H1044.36ZM1050.26 38.14C1049.6 38.14 1049.01 37.9953 1048.48 37.706C1047.97 37.4167 1047.57 37.0013 1047.28 36.46C1046.99 35.9093 1046.85 35.256 1046.85 34.5C1046.85 33.744 1046.99 33.0953 1047.28 32.554C1047.57 32.0033 1047.97 31.5833 1048.47 31.294C1048.97 31.0047 1049.55 30.86 1050.19 30.86C1050.84 30.86 1051.4 31 1051.86 31.28C1052.32 31.56 1052.68 31.9427 1052.92 32.428C1053.16 32.904 1053.29 33.4407 1053.29 34.038C1053.29 34.1967 1053.28 34.3413 1053.27 34.472C1053.26 34.6027 1053.25 34.7193 1053.23 34.822H1047.57V33.828H1052.74L1052.17 33.94C1052.17 33.268 1051.98 32.75 1051.61 32.386C1051.24 32.022 1050.76 31.84 1050.16 31.84C1049.71 31.84 1049.31 31.9473 1048.97 32.162C1048.65 32.3673 1048.39 32.6707 1048.2 33.072C1048.03 33.464 1047.94 33.94 1047.94 34.5C1047.94 35.0507 1048.03 35.5267 1048.22 35.928C1048.4 36.3293 1048.67 36.6373 1049 36.852C1049.35 37.0573 1049.76 37.16 1050.23 37.16C1050.75 37.16 1051.16 37.062 1051.48 36.866C1051.81 36.67 1052.07 36.404 1052.26 36.068L1053.15 36.586C1052.97 36.9033 1052.74 37.1787 1052.46 37.412C1052.19 37.6453 1051.87 37.8273 1051.49 37.958C1051.13 38.0793 1050.72 38.14 1050.26 38.14ZM1057.94 38.14C1057.25 38.14 1056.62 37.9953 1056.05 37.706C1055.48 37.4167 1055.04 37.006 1054.73 36.474L1055.68 35.788C1055.89 36.2173 1056.19 36.5533 1056.58 36.796C1056.98 37.0387 1057.46 37.16 1058.02 37.16C1058.51 37.16 1058.9 37.0667 1059.18 36.88C1059.46 36.684 1059.6 36.432 1059.6 36.124C1059.6 35.928 1059.54 35.7507 1059.41 35.592C1059.28 35.424 1059.05 35.3027 1058.69 35.228L1057.01 34.878C1056.33 34.738 1055.84 34.5047 1055.54 34.178C1055.25 33.8513 1055.11 33.4453 1055.11 32.96C1055.11 32.5773 1055.21 32.2273 1055.43 31.91C1055.65 31.5927 1055.97 31.3407 1056.37 31.154C1056.78 30.958 1057.26 30.86 1057.81 30.86C1058.5 30.86 1059.08 30.9953 1059.56 31.266C1060.04 31.5367 1060.39 31.9193 1060.62 32.414L1059.69 33.03C1059.53 32.6193 1059.27 32.3207 1058.92 32.134C1058.56 31.938 1058.19 31.84 1057.81 31.84C1057.47 31.84 1057.18 31.8867 1056.94 31.98C1056.71 32.0733 1056.53 32.204 1056.4 32.372C1056.27 32.5307 1056.21 32.7127 1056.21 32.918C1056.21 33.1233 1056.28 33.3147 1056.42 33.492C1056.56 33.66 1056.82 33.7813 1057.21 33.856L1058.96 34.22C1059.61 34.3507 1060.07 34.5653 1060.33 34.864C1060.59 35.1627 1060.72 35.5267 1060.72 35.956C1060.72 36.3947 1060.6 36.782 1060.37 37.118C1060.14 37.4447 1059.81 37.6967 1059.39 37.874C1058.97 38.0513 1058.49 38.14 1057.94 38.14ZM1068.13 29.656C1067.88 29.656 1067.67 29.5813 1067.51 29.432C1067.36 29.2733 1067.29 29.068 1067.29 28.816C1067.29 28.564 1067.36 28.3633 1067.51 28.214C1067.67 28.0553 1067.88 27.976 1068.13 27.976C1068.38 27.976 1068.58 28.0553 1068.73 28.214C1068.89 28.3633 1068.97 28.564 1068.97 28.816C1068.97 29.068 1068.89 29.2733 1068.73 29.432C1068.58 29.5813 1068.38 29.656 1068.13 29.656ZM1068.69 31V38H1067.57V31H1068.69ZM1071.29 38V31H1072.27L1072.37 32.568L1072.18 32.414C1072.33 32.0407 1072.53 31.742 1072.79 31.518C1073.04 31.2847 1073.33 31.1167 1073.65 31.014C1073.99 30.9113 1074.34 30.86 1074.69 30.86C1075.19 30.86 1075.65 30.958 1076.06 31.154C1076.47 31.3407 1076.8 31.63 1077.04 32.022C1077.29 32.414 1077.42 32.9133 1077.42 33.52V38H1076.3V33.912C1076.3 33.1373 1076.13 32.6007 1075.8 32.302C1075.47 31.994 1075.06 31.84 1074.58 31.84C1074.24 31.84 1073.91 31.9193 1073.57 32.078C1073.23 32.2367 1072.95 32.4933 1072.73 32.848C1072.52 33.2027 1072.41 33.6787 1072.41 34.276V38H1071.29ZM1081.51 29.012V36.068C1081.51 36.4133 1081.61 36.67 1081.81 36.838C1082 37.006 1082.25 37.09 1082.56 37.09C1082.83 37.09 1083.07 37.0433 1083.26 36.95C1083.46 36.8567 1083.64 36.7307 1083.79 36.572L1084.19 37.51C1083.97 37.706 1083.72 37.86 1083.42 37.972C1083.13 38.084 1082.79 38.14 1082.41 38.14C1082.05 38.14 1081.72 38.0793 1081.41 37.958C1081.11 37.8273 1080.86 37.6267 1080.67 37.356C1080.5 37.076 1080.4 36.712 1080.39 36.264V29.32L1081.51 29.012ZM1084.06 31V31.966H1078.99V31H1084.06ZM1088.65 38.14C1087.99 38.14 1087.4 37.9953 1086.87 37.706C1086.36 37.4167 1085.96 37.0013 1085.67 36.46C1085.38 35.9093 1085.24 35.256 1085.24 34.5C1085.24 33.744 1085.38 33.0953 1085.67 32.554C1085.96 32.0033 1086.36 31.5833 1086.86 31.294C1087.36 31.0047 1087.94 30.86 1088.58 30.86C1089.24 30.86 1089.79 31 1090.25 31.28C1090.71 31.56 1091.07 31.9427 1091.31 32.428C1091.55 32.904 1091.68 33.4407 1091.68 34.038C1091.68 34.1967 1091.67 34.3413 1091.66 34.472C1091.65 34.6027 1091.64 34.7193 1091.62 34.822H1085.96V33.828H1091.13L1090.56 33.94C1090.56 33.268 1090.37 32.75 1090 32.386C1089.63 32.022 1089.15 31.84 1088.55 31.84C1088.1 31.84 1087.7 31.9473 1087.36 32.162C1087.04 32.3673 1086.78 32.6707 1086.59 33.072C1086.42 33.464 1086.33 33.94 1086.33 34.5C1086.33 35.0507 1086.42 35.5267 1086.61 35.928C1086.79 36.3293 1087.06 36.6373 1087.39 36.852C1087.74 37.0573 1088.15 37.16 1088.62 37.16C1089.14 37.16 1089.55 37.062 1089.87 36.866C1090.2 36.67 1090.46 36.404 1090.65 36.068L1091.54 36.586C1091.36 36.9033 1091.13 37.1787 1090.85 37.412C1090.58 37.6453 1090.26 37.8273 1089.88 37.958C1089.52 38.0793 1089.11 38.14 1088.65 38.14ZM1093.81 38V31H1094.72L1094.87 32.148C1095.07 31.7187 1095.35 31.3967 1095.72 31.182C1096.11 30.9673 1096.57 30.86 1097.11 30.86C1097.23 30.86 1097.36 30.8693 1097.5 30.888C1097.65 30.9067 1097.78 30.944 1097.88 31L1097.68 32.022C1097.58 31.9847 1097.47 31.9567 1097.35 31.938C1097.23 31.9193 1097.05 31.91 1096.83 31.91C1096.54 31.91 1096.25 31.994 1095.95 32.162C1095.66 32.33 1095.42 32.5867 1095.22 32.932C1095.02 33.268 1094.93 33.6973 1094.93 34.22V38H1093.81ZM1099.52 38V31H1100.5L1100.6 32.568L1100.42 32.414C1100.57 32.0407 1100.77 31.742 1101.02 31.518C1101.27 31.2847 1101.56 31.1167 1101.89 31.014C1102.22 30.9113 1102.57 30.86 1102.92 30.86C1103.43 30.86 1103.88 30.958 1104.29 31.154C1104.71 31.3407 1105.03 31.63 1105.27 32.022C1105.53 32.414 1105.65 32.9133 1105.65 33.52V38H1104.53V33.912C1104.53 33.1373 1104.36 32.6007 1104.03 32.302C1103.7 31.994 1103.3 31.84 1102.81 31.84C1102.47 31.84 1102.14 31.9193 1101.8 32.078C1101.47 32.2367 1101.19 32.4933 1100.96 32.848C1100.75 33.2027 1100.64 33.6787 1100.64 34.276V38H1099.52ZM1112.28 33.478C1112.28 32.9553 1112.14 32.554 1111.86 32.274C1111.58 31.9847 1111.18 31.84 1110.67 31.84C1110.18 31.84 1109.77 31.9473 1109.43 32.162C1109.1 32.3673 1108.85 32.7033 1108.69 33.17L1107.78 32.61C1107.97 32.0873 1108.31 31.6673 1108.82 31.35C1109.32 31.0233 1109.95 30.86 1110.69 30.86C1111.2 30.86 1111.66 30.9487 1112.07 31.126C1112.48 31.294 1112.8 31.5553 1113.03 31.91C1113.28 32.2553 1113.4 32.7033 1113.4 33.254V36.642C1113.4 36.978 1113.57 37.146 1113.93 37.146C1114.11 37.146 1114.28 37.1227 1114.45 37.076L1114.39 37.958C1114.2 38.0513 1113.96 38.098 1113.66 38.098C1113.39 38.098 1113.15 38.0467 1112.93 37.944C1112.72 37.8413 1112.55 37.6873 1112.43 37.482C1112.31 37.2673 1112.25 37.0013 1112.25 36.684V36.544L1112.53 36.586C1112.42 36.95 1112.23 37.2487 1111.95 37.482C1111.68 37.706 1111.38 37.874 1111.04 37.986C1110.71 38.0887 1110.38 38.14 1110.05 38.14C1109.64 38.14 1109.26 38.07 1108.9 37.93C1108.55 37.79 1108.26 37.58 1108.05 37.3C1107.84 37.0107 1107.74 36.656 1107.74 36.236C1107.74 35.7133 1107.91 35.284 1108.26 34.948C1108.61 34.6027 1109.1 34.3693 1109.73 34.248L1112.5 33.702V34.626L1110.25 35.088C1109.79 35.1813 1109.45 35.312 1109.22 35.48C1109 35.648 1108.89 35.8813 1108.89 36.18C1108.89 36.4693 1109 36.7073 1109.22 36.894C1109.46 37.0713 1109.78 37.16 1110.2 37.16C1110.48 37.16 1110.73 37.1273 1110.97 37.062C1111.23 36.9873 1111.45 36.88 1111.65 36.74C1111.84 36.5907 1112 36.4087 1112.11 36.194C1112.22 35.97 1112.28 35.7087 1112.28 35.41V33.478ZM1118.64 38.14C1117.96 38.14 1117.33 37.9953 1116.75 37.706C1116.18 37.4167 1115.74 37.006 1115.43 36.474L1116.38 35.788C1116.59 36.2173 1116.89 36.5533 1117.28 36.796C1117.68 37.0387 1118.16 37.16 1118.72 37.16C1119.22 37.16 1119.6 37.0667 1119.88 36.88C1120.16 36.684 1120.3 36.432 1120.3 36.124C1120.3 35.928 1120.24 35.7507 1120.11 35.592C1119.99 35.424 1119.75 35.3027 1119.39 35.228L1117.71 34.878C1117.03 34.738 1116.54 34.5047 1116.24 34.178C1115.96 33.8513 1115.81 33.4453 1115.81 32.96C1115.81 32.5773 1115.92 32.2273 1116.13 31.91C1116.36 31.5927 1116.67 31.3407 1117.07 31.154C1117.48 30.958 1117.96 30.86 1118.51 30.86C1119.2 30.86 1119.79 30.9953 1120.26 31.266C1120.74 31.5367 1121.09 31.9193 1121.33 32.414L1120.39 33.03C1120.23 32.6193 1119.97 32.3207 1119.62 32.134C1119.26 31.938 1118.9 31.84 1118.51 31.84C1118.18 31.84 1117.89 31.8867 1117.64 31.98C1117.41 32.0733 1117.23 32.204 1117.1 32.372C1116.98 32.5307 1116.92 32.7127 1116.92 32.918C1116.92 33.1233 1116.99 33.3147 1117.13 33.492C1117.27 33.66 1117.53 33.7813 1117.91 33.856L1119.66 34.22C1120.31 34.3507 1120.77 34.5653 1121.03 34.864C1121.29 35.1627 1121.42 35.5267 1121.42 35.956C1121.42 36.3947 1121.31 36.782 1121.07 37.118C1120.84 37.4447 1120.51 37.6967 1120.09 37.874C1119.67 38.0513 1119.19 38.14 1118.64 38.14Z" fill="#F4F4F4" style="fill:#F4F4F4;fill:color(display-p3 0.9569 0.9569 0.9569);fill-opacity:1;"/>
<path d="M1131 31L1137.55 36L1144 31" stroke="#F4F4F4" style="stroke:#F4F4F4;stroke:color(display-p3 0.9569 0.9569 0.9569);stroke-opacity:1;" stroke-linecap="round"/>
<rect x="1195.5" y="45" width="27" height="27" rx="13.5" transform="rotate(-180 1195.5 45)" fill="#2C2C2C" stroke="#2C2C2C" style="fill:#2C2C2C;fill:color(display-p3 0.1716 0.1716 0.1716);fill-opacity:1;stroke:#2C2C2C;stroke:color(display-p3 0.1716 0.1716 0.1716);stroke-opacity:1;"/>
<path d="M1181.5 44.375C1174.32 44.375 1168.5 38.5547 1168.5 31.375C1168.5 24.1953 1174.32 18.375 1181.5 18.375L1181.5 44.375Z" fill="#F4F4F4" stroke="#F4F4F4" style="fill:#F4F4F4;fill:color(display-p3 0.9569 0.9569 0.9569);fill-opacity:1;stroke:#F4F4F4;stroke:color(display-p3 0.9569 0.9569 0.9569);stroke-opacity:1;"/>
<mask id="mask0_124_437" style="mask-type:alpha" maskUnits="userSpaceOnUse" x="1220" y="16" width="30" height="31">
<rect x="1220" y="16.5" width="30" height="30" fill="#D9D9D9" style="fill:#D9D9D9;fill:color(display-p3 0.8510 0.8510 0.8510);fill-opacity:1;"/>
</mask>
<g mask="url(#mask0_124_437)">
<path d="M1225.16 41.2188C1224.51 41.2188 1223.96 40.9893 1223.5 40.5303C1223.04 40.0713 1222.81 39.5195 1222.81 38.875V24.125C1222.81 23.4805 1223.04 22.9287 1223.5 22.4697C1223.96 22.0107 1224.51 21.7812 1225.16 21.7812H1244.84C1245.49 21.7812 1246.04 22.0107 1246.5 22.4697C1246.96 22.9287 1247.19 23.4805 1247.19 24.125V38.875C1247.19 39.5195 1246.96 40.0713 1246.5 40.5303C1246.04 40.9893 1245.49 41.2188 1244.84 41.2188H1225.16ZM1235 32.6406L1244.84 26.4688V24.125L1235 30.2813L1225.16 24.125V26.4688L1235 32.6406Z" fill="#F4F4F4" style="fill:#F4F4F4;fill:color(display-p3 0.9569 0.9569 0.9569);fill-opacity:1;"/>
</g>
<rect x="1258" y="11.5" width="98" height="40" rx="5" fill="#F4F4F4" fill-opacity="0.2" style="fill:#F4F4F4;fill:color(display-p3 0.9569 0.9569 0.9569);fill-opacity:0.2;"/>
<path d="M1278.58 25.76V31.556C1278.58 32.7413 1278.27 33.6373 1277.64 34.244C1277.02 34.8413 1276.12 35.14 1274.96 35.14C1273.8 35.14 1272.9 34.8413 1272.27 34.244C1271.64 33.6373 1271.33 32.7413 1271.33 31.556V25.76H1272.45V31.276C1272.45 32.2373 1272.65 32.9467 1273.05 33.404C1273.46 33.8613 1274.1 34.09 1274.96 34.09C1275.81 34.09 1276.44 33.8613 1276.85 33.404C1277.26 32.9467 1277.46 32.2373 1277.46 31.276V25.76H1278.58ZM1283.61 35.14C1282.93 35.14 1282.3 34.9953 1281.72 34.706C1281.15 34.4167 1280.71 34.006 1280.41 33.474L1281.36 32.788C1281.56 33.2173 1281.86 33.5533 1282.25 33.796C1282.65 34.0387 1283.14 34.16 1283.7 34.16C1284.19 34.16 1284.58 34.0667 1284.86 33.88C1285.14 33.684 1285.28 33.432 1285.28 33.124C1285.28 32.928 1285.21 32.7507 1285.08 32.592C1284.96 32.424 1284.72 32.3027 1284.37 32.228L1282.69 31.878C1282.01 31.738 1281.52 31.5047 1281.22 31.178C1280.93 30.8513 1280.78 30.4453 1280.78 29.96C1280.78 29.5773 1280.89 29.2273 1281.11 28.91C1281.33 28.5927 1281.64 28.3407 1282.04 28.154C1282.45 27.958 1282.93 27.86 1283.49 27.86C1284.18 27.86 1284.76 27.9953 1285.24 28.266C1285.71 28.5367 1286.07 28.9193 1286.3 29.414L1285.36 30.03C1285.2 29.6193 1284.95 29.3207 1284.59 29.134C1284.24 28.938 1283.87 28.84 1283.49 28.84C1283.15 28.84 1282.86 28.8867 1282.62 28.98C1282.38 29.0733 1282.2 29.204 1282.07 29.372C1281.95 29.5307 1281.89 29.7127 1281.89 29.918C1281.89 30.1233 1281.96 30.3147 1282.1 30.492C1282.24 30.66 1282.5 30.7813 1282.88 30.856L1284.63 31.22C1285.29 31.3507 1285.74 31.5653 1286.01 31.864C1286.27 32.1627 1286.4 32.5267 1286.4 32.956C1286.4 33.3947 1286.28 33.782 1286.05 34.118C1285.81 34.4447 1285.49 34.6967 1285.07 34.874C1284.65 35.0513 1284.16 35.14 1283.61 35.14ZM1291.4 35.14C1290.74 35.14 1290.14 34.9953 1289.62 34.706C1289.11 34.4167 1288.71 34.0013 1288.42 33.46C1288.13 32.9093 1287.98 32.256 1287.98 31.5C1287.98 30.744 1288.13 30.0953 1288.42 29.554C1288.71 29.0033 1289.1 28.5833 1289.61 28.294C1290.11 28.0047 1290.69 27.86 1291.33 27.86C1291.98 27.86 1292.54 28 1293 28.28C1293.46 28.56 1293.82 28.9427 1294.06 29.428C1294.3 29.904 1294.42 30.4407 1294.42 31.038C1294.42 31.1967 1294.42 31.3413 1294.41 31.472C1294.4 31.6027 1294.39 31.7193 1294.37 31.822H1288.71V30.828H1293.88L1293.3 30.94C1293.3 30.268 1293.12 29.75 1292.74 29.386C1292.38 29.022 1291.9 28.84 1291.3 28.84C1290.84 28.84 1290.45 28.9473 1290.11 29.162C1289.79 29.3673 1289.53 29.6707 1289.34 30.072C1289.16 30.464 1289.08 30.94 1289.08 31.5C1289.08 32.0507 1289.17 32.5267 1289.36 32.928C1289.54 33.3293 1289.8 33.6373 1290.14 33.852C1290.49 34.0573 1290.9 34.16 1291.37 34.16C1291.89 34.16 1292.3 34.062 1292.62 33.866C1292.94 33.67 1293.21 33.404 1293.4 33.068L1294.28 33.586C1294.11 33.9033 1293.88 34.1787 1293.6 34.412C1293.33 34.6453 1293.01 34.8273 1292.63 34.958C1292.27 35.0793 1291.86 35.14 1291.4 35.14ZM1296.55 35V28H1297.46L1297.62 29.148C1297.81 28.7187 1298.1 28.3967 1298.47 28.182C1298.85 27.9673 1299.32 27.86 1299.86 27.86C1299.98 27.86 1300.11 27.8693 1300.25 27.888C1300.4 27.9067 1300.53 27.944 1300.63 28L1300.43 29.022C1300.33 28.9847 1300.22 28.9567 1300.1 28.938C1299.97 28.9193 1299.8 28.91 1299.58 28.91C1299.29 28.91 1298.99 28.994 1298.7 29.162C1298.41 29.33 1298.16 29.5867 1297.97 29.932C1297.77 30.268 1297.67 30.6973 1297.67 31.22V35H1296.55ZM1302.27 35V28H1303.25L1303.35 29.568L1303.16 29.414C1303.31 29.0407 1303.51 28.742 1303.77 28.518C1304.02 28.2847 1304.31 28.1167 1304.63 28.014C1304.97 27.9113 1305.32 27.86 1305.67 27.86C1306.17 27.86 1306.63 27.958 1307.04 28.154C1307.45 28.3407 1307.78 28.63 1308.02 29.022C1308.27 29.414 1308.4 29.9133 1308.4 30.52V35H1307.28V30.912C1307.28 30.1373 1307.11 29.6007 1306.78 29.302C1306.45 28.994 1306.04 28.84 1305.56 28.84C1305.22 28.84 1304.89 28.9193 1304.55 29.078C1304.21 29.2367 1303.93 29.4933 1303.71 29.848C1303.5 30.2027 1303.39 30.6787 1303.39 31.276V35H1302.27ZM1315.02 30.478C1315.02 29.9553 1314.88 29.554 1314.6 29.274C1314.32 28.9847 1313.93 28.84 1313.41 28.84C1312.93 28.84 1312.52 28.9473 1312.18 29.162C1311.85 29.3673 1311.6 29.7033 1311.44 30.17L1310.53 29.61C1310.72 29.0873 1311.06 28.6673 1311.57 28.35C1312.07 28.0233 1312.7 27.86 1313.44 27.86C1313.95 27.86 1314.4 27.9487 1314.81 28.126C1315.23 28.294 1315.55 28.5553 1315.78 28.91C1316.02 29.2553 1316.14 29.7033 1316.14 30.254V33.642C1316.14 33.978 1316.32 34.146 1316.68 34.146C1316.85 34.146 1317.03 34.1227 1317.19 34.076L1317.14 34.958C1316.95 35.0513 1316.71 35.098 1316.41 35.098C1316.14 35.098 1315.9 35.0467 1315.68 34.944C1315.47 34.8413 1315.3 34.6873 1315.18 34.482C1315.06 34.2673 1315 34.0013 1315 33.684V33.544L1315.28 33.586C1315.16 33.95 1314.97 34.2487 1314.7 34.482C1314.43 34.706 1314.13 34.874 1313.79 34.986C1313.46 35.0887 1313.13 35.14 1312.8 35.14C1312.39 35.14 1312.01 35.07 1311.65 34.93C1311.3 34.79 1311.01 34.58 1310.8 34.3C1310.59 34.0107 1310.49 33.656 1310.49 33.236C1310.49 32.7133 1310.66 32.284 1311.01 31.948C1311.36 31.6027 1311.85 31.3693 1312.48 31.248L1315.25 30.702V31.626L1312.99 32.088C1312.54 32.1813 1312.2 32.312 1311.97 32.48C1311.75 32.648 1311.64 32.8813 1311.64 33.18C1311.64 33.4693 1311.75 33.7073 1311.97 33.894C1312.21 34.0713 1312.53 34.16 1312.95 34.16C1313.22 34.16 1313.48 34.1273 1313.72 34.062C1313.97 33.9873 1314.2 33.88 1314.39 33.74C1314.59 33.5907 1314.74 33.4087 1314.86 33.194C1314.97 32.97 1315.02 32.7087 1315.02 32.41V30.478ZM1318.87 35V28H1319.85L1319.92 29.092C1320.17 28.6627 1320.5 28.35 1320.9 28.154C1321.31 27.958 1321.73 27.86 1322.16 27.86C1322.65 27.86 1323.12 27.972 1323.56 28.196C1324 28.42 1324.33 28.7653 1324.56 29.232C1324.71 28.9147 1324.92 28.658 1325.19 28.462C1325.47 28.2567 1325.76 28.1073 1326.08 28.014C1326.4 27.9113 1326.71 27.86 1327 27.86C1327.45 27.86 1327.87 27.9533 1328.27 28.14C1328.69 28.3267 1329.02 28.616 1329.28 29.008C1329.54 29.4 1329.67 29.904 1329.67 30.52V35H1328.55V30.632C1328.55 29.9973 1328.4 29.54 1328.08 29.26C1327.76 28.98 1327.37 28.84 1326.9 28.84C1326.54 28.84 1326.2 28.9287 1325.88 29.106C1325.56 29.2833 1325.31 29.5447 1325.11 29.89C1324.92 30.2353 1324.83 30.66 1324.83 31.164V35H1323.71V30.632C1323.71 29.9973 1323.55 29.54 1323.23 29.26C1322.92 28.98 1322.53 28.84 1322.06 28.84C1321.75 28.84 1321.43 28.924 1321.11 29.092C1320.79 29.2507 1320.52 29.5073 1320.31 29.862C1320.09 30.2167 1319.99 30.6833 1319.99 31.262V35H1318.87ZM1335.14 35.14C1334.47 35.14 1333.88 34.9953 1333.36 34.706C1332.84 34.4167 1332.44 34.0013 1332.15 33.46C1331.86 32.9093 1331.72 32.256 1331.72 31.5C1331.72 30.744 1331.86 30.0953 1332.15 29.554C1332.44 29.0033 1332.84 28.5833 1333.34 28.294C1333.85 28.0047 1334.42 27.86 1335.07 27.86C1335.72 27.86 1336.27 28 1336.73 28.28C1337.2 28.56 1337.55 28.9427 1337.8 29.428C1338.04 29.904 1338.16 30.4407 1338.16 31.038C1338.16 31.1967 1338.16 31.3413 1338.15 31.472C1338.14 31.6027 1338.12 31.7193 1338.1 31.822H1332.45V30.828H1337.61L1337.04 30.94C1337.04 30.268 1336.85 29.75 1336.48 29.386C1336.12 29.022 1335.64 28.84 1335.04 28.84C1334.58 28.84 1334.18 28.9473 1333.85 29.162C1333.52 29.3673 1333.26 29.6707 1333.08 30.072C1332.9 30.464 1332.81 30.94 1332.81 31.5C1332.81 32.0507 1332.91 32.5267 1333.09 32.928C1333.28 33.3293 1333.54 33.6373 1333.88 33.852C1334.22 34.0573 1334.63 34.16 1335.11 34.16C1335.62 34.16 1336.04 34.062 1336.35 33.866C1336.68 33.67 1336.94 33.404 1337.14 33.068L1338.02 33.586C1337.84 33.9033 1337.61 34.1787 1337.33 34.412C1337.06 34.6453 1336.74 34.8273 1336.37 34.958C1336 35.0793 1335.59 35.14 1335.14 35.14Z" fill="#F4F4F4" fill-opacity="0.8" style="fill:#F4F4F4;fill:color(display-p3 0.9569 0.9569 0.9569);fill-opacity:0.8;"/>
<path d="M1364 28L1375.09 35L1386 28" stroke="#F4F4F4" style="stroke:#F4F4F4;stroke:color(display-p3 0.9569 0.9569 0.9569);stroke-opacity:1;" stroke-width="4" stroke-linecap="round"/>
</svg>
