<svg width="196" height="43" viewBox="0 0 196 43" fill="none" xmlns="http://www.w3.org/2000/svg">
<path fill-rule="evenodd" clip-rule="evenodd" d="M11.8504 2.74468C6.73643 2.74468 2.59077 7.13664 2.59077 12.5544V30.4456C2.59077 35.8633 6.73644 40.2553 11.8504 40.2553H28.7383C33.8522 40.2553 37.9979 35.8633 37.9979 30.4456V12.5544C37.9979 7.13664 33.8522 2.74468 28.7383 2.74468H11.8504ZM0 12.5544C0 5.62079 5.30559 0 11.8504 0H28.7383C35.283 0 40.5887 5.62079 40.5887 12.5544V30.4456C40.5887 37.3792 35.283 43 28.7383 43H11.8504C5.30559 43 0 37.3792 0 30.4456V12.5544ZM63.6541 2.74468C58.5402 2.74468 54.3946 7.13664 54.3946 12.5544V30.4456C54.3946 35.8633 58.5402 40.2553 63.6541 40.2553H80.5421C85.656 40.2553 89.8017 35.8633 89.8017 30.4456V12.5544C89.8017 7.13664 85.656 2.74468 80.5421 2.74468H63.6541ZM51.8038 12.5544C51.8038 5.62079 57.1094 0 63.6541 0H80.5421C87.0868 0 92.3925 5.62079 92.3925 12.5544V30.4456C92.3925 37.3792 87.0868 43 80.5421 43H63.6541C57.1094 43 51.8038 37.3792 51.8038 30.4456V12.5544ZM167.262 2.74468C162.148 2.74468 158.002 7.13664 158.002 12.5544V30.4456C158.002 35.8633 162.148 40.2553 167.262 40.2553H184.15C189.264 40.2553 193.409 35.8633 193.409 30.4456V12.5544C193.409 7.13664 189.264 2.74468 184.15 2.74468H167.262ZM155.411 12.5544C155.411 5.62079 160.717 0 167.262 0H184.15C190.694 0 196 5.62079 196 12.5544V30.4456C196 37.3792 190.694 43 184.15 43H167.262C160.717 43 155.411 37.3792 155.411 30.4456V12.5544ZM74.0016 6.72694C74.6288 6.61913 75.2371 7.00908 75.438 7.64763C75.7297 8.5747 76.4667 10.0523 77.6869 11.2796C78.8851 12.4847 80.5139 13.4184 82.6531 13.4184C83.3685 13.4184 83.9485 14.0329 83.9485 14.7908C83.9485 15.5487 83.3685 16.1631 82.6531 16.1631C79.7259 16.1631 77.4845 14.8605 75.9032 13.2701C75.7656 13.1317 75.6327 12.9909 75.5045 12.8483V28.2092C75.5045 32.6726 72.0893 36.2908 67.8761 36.2908C63.6631 36.2908 60.2478 32.6727 60.2478 28.2092C60.2478 23.7458 63.6631 20.1277 67.8761 20.1277C68.5916 20.1277 69.1715 20.7421 69.1715 21.5C69.1715 22.2579 68.5916 22.8723 67.8761 22.8723C65.0939 22.8723 62.8385 25.2617 62.8385 28.2092C62.8385 31.1568 65.0939 33.5461 67.8761 33.5461C70.6584 33.5461 72.9137 31.1568 72.9137 28.2092V8.08156C72.9137 7.40848 73.3745 6.83474 74.0016 6.72694ZM128.418 7.39531C130.147 6.69624 132.036 6.57655 133.832 7.05239C135.334 7.45056 136.709 8.24959 137.829 9.36641C138.581 9.04481 139.484 8.57356 140.311 8.11119C140.854 7.80776 141.339 7.52259 141.688 7.31323C141.862 7.20869 142.002 7.12339 142.098 7.06461C142.145 7.03523 142.182 7.01249 142.207 6.99731L142.234 6.98033L142.242 6.97546C142.719 6.67695 143.322 6.73272 143.743 7.11432C144.164 7.49592 144.309 8.11882 144.105 8.66415L142.901 8.15695C144.105 8.66415 144.104 8.66429 144.104 8.66445L144.104 8.66487L144.104 8.66604L144.098 8.68229C144.094 8.69296 144.088 8.70819 144.08 8.72774C144.065 8.76682 144.044 8.82316 144.016 8.89484C143.96 9.03814 143.878 9.24301 143.776 9.49386C143.57 9.99466 143.277 10.6833 142.926 11.4334C142.351 12.6619 141.556 14.2021 140.682 15.3119C140.721 15.6684 140.741 16.0272 140.742 16.3866V16.391C140.742 27.3925 135.75 35.4209 128.613 39.4456C121.507 43.4525 112.404 43.4185 104.274 38.6333C103.749 38.3246 103.494 37.6749 103.656 37.063C103.818 36.4511 104.355 36.0371 104.954 36.0624C108.209 36.1995 111.427 35.4387 114.301 33.8736C111.395 32.1238 109.363 29.9983 107.992 27.7038C106.307 24.8858 105.668 21.8958 105.552 19.198C105.436 16.5062 105.84 14.0771 106.267 12.3306C106.481 11.4542 106.702 10.741 106.873 10.242C106.958 9.99233 107.03 9.79561 107.083 9.65819C107.109 9.58947 107.13 9.53552 107.146 9.49714C107.154 9.47794 107.16 9.46263 107.164 9.45131L107.17 9.43732L107.172 9.43259L107.173 9.43079C107.173 9.43005 107.174 9.42937 108.357 9.98673L107.174 9.42937C107.363 8.97759 107.767 8.66873 108.232 8.62084C108.696 8.57296 109.149 8.79344 109.417 9.19803C111.04 11.6452 113.208 13.6294 115.729 14.9738C117.874 16.1175 120.217 16.768 122.607 16.8892V16.4548C122.584 14.4979 123.127 12.5804 124.165 10.9611C125.204 9.33902 126.689 8.09435 128.418 7.39531ZM108.828 12.8038C108.81 12.8738 108.793 12.9452 108.775 13.0179C108.392 14.5879 108.04 16.7332 108.14 19.0734C108.24 21.4075 108.788 23.907 110.18 26.2352C111.567 28.5548 113.84 30.7877 117.519 32.52C117.949 32.7224 118.242 33.1557 118.283 33.652C118.325 34.1483 118.11 34.6297 117.721 34.9095C115.396 36.5809 112.799 37.7408 110.082 38.3427C116.16 40.4417 122.38 39.8505 127.395 37.0227C133.643 33.5 138.15 26.4342 138.151 16.3954C138.15 15.9708 138.111 15.5472 138.036 15.1299C137.955 14.68 138.091 14.2168 138.399 13.8952C138.928 13.3423 139.516 12.3757 140.064 11.3166C139.3 11.7026 138.512 12.0597 137.851 12.2706C137.363 12.4262 136.834 12.2644 136.5 11.8571C135.634 10.8021 134.483 10.0544 133.203 9.71499C131.922 9.37562 130.575 9.46099 129.342 9.95955C128.109 10.4581 127.05 11.3459 126.309 12.5025C125.568 13.6593 125.179 15.0294 125.197 16.4275L125.197 16.4349L125.197 16.4459V18.2757C125.197 19.0197 124.638 19.6283 123.935 19.6475C120.687 19.7368 117.467 18.9734 114.564 17.4255C112.394 16.2682 110.451 14.6994 108.828 12.8038ZM32.7926 8.17759C33.3243 8.68465 33.3673 9.55237 32.8887 10.1157L32.8676 10.1405C32.389 10.7039 31.5699 10.7495 31.0382 10.2424C30.5064 9.73535 30.4634 8.86763 30.942 8.30431L30.9631 8.27946C31.4418 7.71614 32.2608 7.67053 32.7926 8.17759ZM10.555 21.5C10.555 15.8015 14.9154 11.182 20.2943 11.182C25.6731 11.182 30.0337 15.8015 30.0337 21.5C30.0337 27.1984 25.6732 31.818 20.2943 31.818C14.9154 31.818 10.555 27.1984 10.555 21.5ZM20.2943 13.9267C16.3463 13.9267 13.1457 17.3174 13.1457 21.5C13.1457 25.6825 16.3463 29.0733 20.2943 29.0733C24.2423 29.0733 27.4429 25.6825 27.4429 21.5C27.4429 17.3174 24.2423 13.9267 20.2943 13.9267ZM161.744 12.5544C161.744 11.7964 162.324 11.182 163.04 11.182V12.5544C163.04 11.182 163.04 11.182 163.04 11.182H169.581C171.273 11.182 172.636 11.8724 173.562 12.9827C174.466 14.0672 174.89 15.473 174.89 16.8327C174.89 18.1925 174.466 19.5982 173.562 20.6827C173.422 20.8502 173.273 21.008 173.114 21.1555C173.287 21.3267 173.449 21.5107 173.598 21.7059C174.484 22.8647 174.89 24.3517 174.89 25.7784C174.89 27.205 174.484 28.692 173.598 29.8508C172.686 31.0435 171.315 31.818 169.581 31.818H163.04C163.04 31.818 163.04 31.818 163.04 31.6121L163.04 31.818C162.324 31.818 161.744 31.2035 161.744 30.4456V12.5544ZM169.581 19.7387C170.564 19.7387 171.208 19.3595 171.62 18.8655C172.054 18.3456 172.299 17.6122 172.299 16.8327C172.299 16.0533 172.054 15.3199 171.62 14.8C171.208 14.3059 170.564 13.9267 169.581 13.9267H164.335V19.7387H169.581ZM164.335 22.4834H169.581C170.523 22.4834 171.158 22.8758 171.585 23.4333C172.037 24.0248 172.299 24.8714 172.299 25.7784C172.299 26.6853 172.037 27.5319 171.585 28.1234C171.158 28.681 170.523 29.0733 169.581 29.0733H164.335V22.4834ZM178.632 13.6726C178.632 12.9147 179.212 12.3002 179.928 12.3002H186.261C186.976 12.3002 187.556 12.9147 187.556 13.6726C187.556 14.4305 186.976 15.0449 186.261 15.0449H179.928C179.212 15.0449 178.632 14.4305 178.632 13.6726ZM176.521 24.8546C176.521 21.0089 179.464 17.8913 183.094 17.8913C186.724 17.8913 189.667 21.0089 189.667 24.8546C189.667 25.6125 189.087 26.2269 188.372 26.2269H179.327C179.865 27.8831 181.348 29.0733 183.094 29.0733C184.718 29.0733 185.595 28.4887 186.042 28.0512C186.567 27.5371 187.387 27.5717 187.872 28.1285C188.358 28.6854 188.325 29.5536 187.799 30.0678C186.887 30.9605 185.387 31.818 183.094 31.818C179.464 31.818 176.521 28.7003 176.521 24.8546ZM179.327 23.4823H186.861C186.323 21.8261 184.84 20.6359 183.094 20.6359C181.348 20.6359 179.865 21.8261 179.327 23.4823Z" fill="#FF57A0"/>
</svg>
