<svg width="216" height="45" viewBox="0 0 216 45" fill="none" xmlns="http://www.w3.org/2000/svg">
<path fill-rule="evenodd" clip-rule="evenodd" d="M13.0596 2.87234C7.42382 2.87234 2.85513 7.46857 2.85513 13.1383V31.8617C2.85513 37.5314 7.42383 42.1277 13.0596 42.1277H31.6708C37.3065 42.1277 41.8752 37.5314 41.8752 31.8617V13.1383C41.8752 7.46858 37.3065 2.87234 31.6708 2.87234H13.0596ZM0 13.1383C0 5.88222 5.84698 0 13.0596 0H31.6708C38.8833 0 44.7304 5.88222 44.7304 13.1383V31.8617C44.7304 39.1177 38.8833 45 31.6708 45H13.0596C5.84698 45 0 39.1177 0 31.8617V13.1383ZM70.1495 2.87234C64.5137 2.87234 59.945 7.46857 59.945 13.1383V31.8617C59.945 37.5314 64.5137 42.1277 70.1495 42.1277H88.7607C94.3964 42.1277 98.9651 37.5314 98.9651 31.8617V13.1383C98.9651 7.46858 94.3964 2.87234 88.7607 2.87234H70.1495ZM57.0899 13.1383C57.0899 5.88223 62.9369 0 70.1495 0H88.7607C95.9732 0 101.82 5.88222 101.82 13.1383V31.8617C101.82 39.1177 95.9732 45 88.7607 45H70.1495C62.9369 45 57.0899 39.1177 57.0899 31.8617V13.1383ZM184.329 2.87234C178.693 2.87234 174.125 7.46857 174.125 13.1383V31.8617C174.125 37.5314 178.693 42.1277 184.329 42.1277H202.94C208.576 42.1277 213.145 37.5314 213.145 31.8617V13.1383C213.145 7.46858 208.576 2.87234 202.94 2.87234H184.329ZM171.27 13.1383C171.27 5.88223 177.117 0 184.329 0H202.94C210.153 0 216 5.88222 216 13.1383V31.8617C216 39.1177 210.153 45 202.94 45H184.329C177.117 45 171.27 39.1177 171.27 31.8617V13.1383ZM81.5528 7.03982C82.2439 6.927 82.9144 7.33508 83.1358 8.00333C83.4572 8.97353 84.2694 10.5199 85.6142 11.8042C86.9347 13.0654 88.7296 14.0426 91.0871 14.0426C91.8755 14.0426 92.5146 14.6855 92.5146 15.4787C92.5146 16.2719 91.8755 16.9149 91.0871 16.9149C87.8612 16.9149 85.391 15.5517 83.6484 13.8873C83.4967 13.7425 83.3503 13.5951 83.209 13.4459V29.5213C83.209 34.1923 79.4453 37.9787 74.8023 37.9787C70.1594 37.9787 66.3955 34.1923 66.3955 29.5213C66.3955 24.8502 70.1594 21.0638 74.8023 21.0638C75.5907 21.0638 76.2298 21.7068 76.2298 22.5C76.2298 23.2932 75.5907 23.9362 74.8023 23.9362C71.7362 23.9362 69.2506 26.4366 69.2506 29.5213C69.2506 32.6059 71.7362 35.1064 74.8023 35.1064C77.8685 35.1064 80.3539 32.6059 80.3539 29.5213V8.45745C80.3539 7.75306 80.8617 7.15264 81.5528 7.03982ZM141.522 7.73927C143.427 7.00769 145.509 6.88244 147.488 7.38041C149.143 7.79709 150.659 8.6333 151.893 9.80206C152.722 9.4655 153.717 8.97233 154.629 8.48846C155.227 8.17091 155.761 7.87248 156.146 7.65338C156.338 7.54397 156.492 7.45471 156.597 7.3932C156.65 7.36245 156.691 7.33865 156.718 7.32277L156.748 7.305L156.756 7.2999C157.282 6.9875 157.947 7.04587 158.411 7.44522C158.875 7.84457 159.035 8.49644 158.809 9.06713L157.483 8.53634C158.809 9.06713 158.809 9.06713 158.809 9.06713L158.808 9.06911L158.802 9.08611C158.797 9.09729 158.791 9.11323 158.782 9.13368C158.766 9.17457 158.742 9.23354 158.711 9.30855C158.649 9.45852 158.56 9.67292 158.447 9.93544C158.22 10.4595 157.897 11.1802 157.511 11.9652C156.877 13.2508 156 14.8627 155.037 16.0241C155.08 16.3972 155.102 16.7726 155.103 17.1487V17.1534C155.103 28.6666 149.602 37.0683 141.736 41.2802C133.905 45.4735 123.874 45.438 114.914 40.4301C114.336 40.1072 114.054 39.4273 114.233 38.7869C114.411 38.1465 115.003 37.7132 115.664 37.7397C119.251 37.8831 122.798 37.087 125.965 35.4491C122.762 33.6179 120.523 31.3935 119.011 28.9923C117.155 26.0432 116.45 22.9142 116.323 20.0909C116.195 17.274 116.64 14.7318 117.11 12.9042C117.346 11.987 117.59 11.2406 117.778 10.7184C117.872 10.4571 117.952 10.2512 118.01 10.1074C118.039 10.0355 118.062 9.97903 118.079 9.93886C118.088 9.91878 118.094 9.90275 118.1 9.8909L118.106 9.87626L118.108 9.87131L118.109 9.86943C118.109 9.86943 118.11 9.86795 119.414 10.4512L118.11 9.86795C118.319 9.39516 118.764 9.07193 119.276 9.02181C119.788 8.9717 120.287 9.20244 120.582 9.62584C122.37 12.1868 124.76 14.2633 127.538 15.6703C129.902 16.8671 132.485 17.548 135.117 17.6747V17.2201C135.092 15.1722 135.692 13.1655 136.835 11.4709C137.98 9.7734 139.617 8.47083 141.522 7.73927ZM119.933 13.3993C119.913 13.4726 119.894 13.5473 119.874 13.6233C119.452 15.2664 119.064 17.5115 119.175 19.9605C119.285 22.4032 119.889 25.0189 121.423 27.4555C122.951 29.8829 125.457 32.2197 129.511 34.0325C129.985 34.2443 130.307 34.6978 130.353 35.2172C130.399 35.7366 130.162 36.2403 129.733 36.5332C127.172 38.2823 124.309 39.4962 121.315 40.1261C128.013 42.3227 134.868 41.704 140.395 38.7447C147.28 35.0582 152.247 27.6637 152.248 17.158C152.247 16.7137 152.204 16.2703 152.121 15.8337C152.032 15.3628 152.182 14.8781 152.521 14.5414C153.104 13.9629 153.753 12.9514 154.356 11.843C153.514 12.2469 152.646 12.6207 151.917 12.8413C151.38 13.0042 150.797 12.8348 150.429 12.4086C149.474 11.3045 148.206 10.522 146.795 10.1669C145.384 9.8117 143.899 9.90103 142.54 10.4228C141.181 10.9446 140.014 11.8736 139.197 13.0841C138.381 14.2946 137.953 15.7285 137.972 17.1916L137.972 17.1993L137.973 17.2108V19.1257C137.973 19.9044 137.356 20.5412 136.582 20.5614C133.002 20.6548 129.454 19.8559 126.255 18.236C123.863 17.0249 121.722 15.383 119.933 13.3993ZM36.1387 8.55794C36.7247 9.08859 36.7722 9.99667 36.2447 10.5862L36.2214 10.6122C35.694 11.2017 34.7913 11.2495 34.2053 10.7188C33.6193 10.1882 33.5719 9.28008 34.0994 8.69056L34.1226 8.66455C34.6501 8.07503 35.5527 8.0273 36.1387 8.55794ZM11.632 22.5C11.632 16.5365 16.4374 11.7021 22.3652 11.7021C28.2929 11.7021 33.0984 16.5365 33.0984 22.5C33.0984 28.4634 28.2929 33.2979 22.3652 33.2979C16.4374 33.2979 11.632 28.4634 11.632 22.5ZM22.3652 14.5745C18.0143 14.5745 14.4871 18.1228 14.4871 22.5C14.4871 26.8771 18.0143 30.4255 22.3652 30.4255C26.716 30.4255 30.2432 26.8771 30.2432 22.5C30.2432 18.1229 26.716 14.5745 22.3652 14.5745ZM178.249 13.1383C178.249 12.3451 178.888 11.7021 179.676 11.7021V13.1383C179.676 11.7021 179.676 11.7021 179.676 11.7021H186.885C188.75 11.7021 190.252 12.4246 191.272 13.5866C192.269 14.7215 192.736 16.1927 192.736 17.6156C192.736 19.0386 192.269 20.5098 191.272 21.6447C191.119 21.8199 190.954 21.9852 190.778 22.1394C190.969 22.3186 191.147 22.5112 191.312 22.7155C192.288 23.9281 192.736 25.4843 192.736 26.9774C192.736 28.4704 192.288 30.0266 191.312 31.2392C190.307 32.4874 188.796 33.2979 186.885 33.2979H179.676C179.676 33.2979 179.676 33.2979 179.676 33.0825L179.676 33.2979C178.888 33.2979 178.249 32.6549 178.249 31.8617V13.1383ZM186.885 20.6568C187.969 20.6568 188.679 20.26 189.133 19.7429C189.611 19.1989 189.881 18.4313 189.881 17.6156C189.881 16.8 189.611 16.0324 189.133 15.4884C188.679 14.9713 187.969 14.5745 186.885 14.5745H181.104V20.6568H186.885ZM181.104 23.5292H186.885C187.923 23.5292 188.623 23.9397 189.093 24.5232C189.591 25.1422 189.881 26.0282 189.881 26.9774C189.881 27.9265 189.591 28.8125 189.093 29.4315C188.623 30.015 187.923 30.4255 186.885 30.4255H181.104V23.5292ZM196.86 14.3085C196.86 13.5153 197.499 12.8723 198.288 12.8723H205.267C206.055 12.8723 206.694 13.5153 206.694 14.3085C206.694 15.1017 206.055 15.7447 205.267 15.7447H198.288C197.499 15.7447 196.86 15.1017 196.86 14.3085ZM194.534 26.0106C194.534 21.986 197.777 18.7234 201.777 18.7234C205.778 18.7234 209.021 21.986 209.021 26.0106C209.021 26.8038 208.382 27.4468 207.593 27.4468H197.626C198.219 29.18 199.853 30.4255 201.777 30.4255C203.566 30.4255 204.533 29.8138 205.026 29.3559C205.605 28.8179 206.508 28.8541 207.043 29.4368C207.578 30.0196 207.542 30.9282 206.962 31.4663C205.957 32.4005 204.304 33.2979 201.777 33.2979C197.777 33.2979 194.534 30.0352 194.534 26.0106ZM197.626 24.5745H205.928C205.336 22.8412 203.701 21.5957 201.777 21.5957C199.853 21.5957 198.219 22.8412 197.626 24.5745Z" fill="black"/>
</svg>
