<?xml version="1.0" encoding="UTF-8"?>
<svg id="Camada_2" data-name="Camada 2" xmlns="http://www.w3.org/2000/svg" viewBox="0 0 244.29 168.26">
  <defs>
    <style>
      .cls-1 {
        stroke-width: 20px;
      }

      .cls-1, .cls-2 {
        fill: none;
        stroke: #1d1d1b;
        stroke-miterlimit: 10;
      }

      .cls-2 {
        stroke-width: 17px;
      }
    </style>
  </defs>
  <g id="Camada_1-2" data-name="Camada 1">
    <path class="cls-2" d="M8.5,110.48c.71-30.69,4.64-61.31,11.72-91.18,12.11,15.68,20.8,33.97,25.32,53.26,4.77-19.9,8.66-40,11.67-60.24,8.46,3.29,12.12,13.06,14.51,21.81,8.72,31.93,13.4,64.79,18.06,97.56"/>
    <path class="cls-2" d="M108.85,41.69c.99,27.35,5.35,54.59,12.93,80.89-3.94-15.1-6.94-30.44-8.99-45.9-.56-4.21-1.04-8.55.02-12.67,1.86-7.24,8.28-12.6,15.29-15.19s14.63-2.86,22.1-3.1"/>
    <path class="cls-1" d="M114.01,25.16c21.59-10.18,59.4-19.67,80.77-5.52,16.45,12.4,7.44,32.59-7.1,42.23-2.71,2.24-10.6,6.35-4.6,5.78,14.05-1.88,29.78-1.24,41.14,9.8,7.29,6.91,11.46,17.27,9.64,27-1.93,11.28-11.31,19.22-21.48,23.8-6.68,3.1-13.91,5.24-21.02,7.13-40.2,10.32-81.1,17.8-122.28,22.97"/>
  </g>
</svg>